<svg class="svg-standalone-icon" width="100%" viewBox="138.9038191680643 159.9197144412417 272.19236166387145 68.00422735157002"><g data-paper-data="{&quot;fillRule&quot;:&quot;evenodd&quot;,&quot;fillRuleOriginal&quot;:&quot;evenodd&quot;,&quot;isIcon&quot;:true,&quot;iconStyle&quot;:&quot;standalone&quot;,&quot;selectedEffects&quot;:{&quot;container&quot;:&quot;&quot;,&quot;transformation&quot;:&quot;&quot;,&quot;pattern&quot;:&quot;&quot;},&quot;bounds&quot;:{&quot;x&quot;:138.9038191680643,&quot;y&quot;:159.9197144412417,&quot;width&quot;:272.19236166387145,&quot;height&quot;:68.00422735157002},&quot;iconType&quot;:&quot;icon&quot;,&quot;rawIconId&quot;:&quot;2af5f094-446d-4614-a794-11fb0c22c978&quot;,&quot;isSvgStockIcon&quot;:true,&quot;combineTerms&quot;:&quot;ball,soccer&quot;,&quot;combineTermsExtended&quot;:{&quot;icon&quot;:[&quot;ball&quot;,&quot;soccer&quot;]},&quot;isDetailed&quot;:true,&quot;suitableAsStandaloneIcon&quot;:true}" fill-rule="evenodd"><path d="M275.36711,227.9228c-0.59567,-0.01385 -1.19133,-0.01385 -1.787,-0.04156c-0.47099,-0.01385 -0.94199,-0.01385 -1.39912,-0.11082c-0.06926,-0.01385 -0.15237,-0.01385 -0.22165,-0.01385c-0.74805,-0.04156 -1.4684,-0.16623 -2.20258,-0.29091c-0.98354,-0.15237 -1.93938,-0.36016 -2.89522,-0.60952c-1.70388,-0.42944 -3.36622,-0.99739 -4.97313,-1.70388c-2.78441,-1.20519 -5.36101,-2.7567 -7.74368,-4.65452c-1.32986,-1.06665 -2.59045,-2.23029 -3.75409,-3.47704c-1.73159,-1.88397 -3.24154,-3.92032 -4.52984,-6.13677c-1.56536,-2.71513 -2.72899,-5.59651 -3.50474,-8.63025c-0.30476,-1.21904 -0.54026,-2.46579 -0.72034,-3.71253c-0.09697,-0.67878 -0.18008,-1.37141 -0.20779,-2.06406c-0.01385,-0.34632 -0.06926,-0.69263 -0.08311,-1.03896c-0.04156,-1.03896 -0.04156,-2.07792 0,-3.11686c0.02771,-0.59567 0.08311,-1.19133 0.13853,-1.77316c0.04156,-0.41558 0.08311,-0.83117 0.15237,-1.24675c0.34632,-2.38268 0.90043,-4.70994 1.71774,-6.96792c1.05281,-2.88137 2.45194,-5.5688 4.22508,-8.0623c1.09436,-1.53766 2.29955,-2.97834 3.62941,-4.30821c2.72899,-2.74284 5.83201,-4.95928 9.32289,-6.64931c2.47965,-1.20519 5.0701,-2.09176 7.77138,-2.64587c1.10822,-0.2355 2.23029,-0.41558 3.36622,-0.52641c0.72034,-0.06926 1.42683,-0.11082 2.14718,-0.15237c0.51255,-0.02771 1.03896,-0.06926 1.55151,-0.06926c0.44329,0.01385 0.88657,0 1.32986,0.0554c0.19394,0.02771 0.40173,0.02771 0.59567,0.02771c0.7896,0 1.57921,0.09697 2.36882,0.20779c1.69003,0.20779 3.36622,0.55412 5.0147,1.0251c2.07792,0.59567 4.07271,1.37141 5.99824,2.34111c2.43808,1.2329 4.69608,2.74284 6.77398,4.516c1.16364,0.99739 2.258,2.07792 3.2831,3.21383c1.44069,1.60691 2.71513,3.33851 3.82335,5.19478c1.42683,2.39652 2.5489,4.91773 3.35236,7.57744c0.42944,1.42683 0.77575,2.86752 0.99739,4.3359c0.08311,0.51255 0.16623,1.0251 0.2355,1.53766c0.02771,0.16623 0.02771,0.34632 0.04156,0.51255l0.08311,0.95584c0.01385,0.22165 0.04156,0.44329 0.04156,0.66493c0.04156,1.2329 0.04156,2.47965 0,3.71253c-0.01385,0.27705 -0.04156,0.54026 -0.06926,0.81731l-0.04156,0.37402c-0.11082,1.55151 -0.37402,3.08917 -0.72034,4.61297c-0.63723,2.83981 -1.64848,5.54109 -3.00604,8.1177c-1.05281,1.99479 -2.28569,3.87877 -3.71253,5.63806c-0.95584,1.17748 -1.96709,2.28569 -3.07531,3.32465c-2.89522,2.71513 -6.15061,4.89002 -9.79388,6.46922c-1.92553,0.84502 -3.92032,1.49609 -5.98438,1.96709c-0.96969,0.22165 -1.93938,0.38787 -2.92292,0.52641c-1.49609,0.18008 -3.0476,0.29091 -4.61297,0.27705zM276.96018,160.5431c-0.24936,-0.02771 -0.4987,-0.04156 -0.7342,-0.0554c-0.27705,-0.01385 -0.54026,-0.01385 -0.81731,-0.01385c-0.15237,0 -0.29091,0.0554 -0.41558,0.15237c-0.16623,0.15237 -0.33247,0.30476 -0.48484,0.45713c-0.30476,0.30476 -0.27705,0.37402 0.15237,0.51255c0.13853,0.04156 0.27705,0.09697 0.42944,0.13853c1.34372,0.42944 2.64587,0.98354 3.87877,1.64848c1.20519,0.65108 2.32726,1.41298 3.2831,2.39652l0.15237,0.15237c0.37402,0.34632 0.81731,0.55412 1.32986,0.58181c0.81731,0.0554 1.62077,0.20779 2.42423,0.34632c1.84242,0.33247 3.67098,0.80346 5.44412,1.42683c1.21904,0.42944 2.39652,0.94199 3.47704,1.63462c0.04156,0.02771 0.08311,0.0554 0.12468,0.06926c0.09697,0.0554 0.19394,0.0554 0.27705,-0.01385l1.62077,-1.16364c0.01385,-0.01385 0.02771,-0.04156 0.0554,-0.0554c0.0554,-0.04156 0.0554,-0.13853 0,-0.19394c-0.37402,-0.31861 -0.74805,-0.63723 -1.13593,-0.94199c-2.97834,-2.35497 -6.26143,-4.14197 -9.8493,-5.37486c-1.89782,-0.65108 -3.8372,-1.13593 -5.81815,-1.41298c-1.01125,-0.13853 -2.00864,-0.2632 -3.01989,-0.29091c-0.12468,0.01385 -0.24936,0.01385 -0.37402,0zM257.35856,174.10493c-0.02771,0.12468 -0.0554,0.2355 -0.08311,0.36016c-0.02771,0.11082 0.01385,0.20779 0.11082,0.24936c0.19394,0.09697 0.40173,0.19394 0.59567,0.29091c1.31601,0.62338 2.63202,1.24675 3.94803,1.89782c1.38527,0.67878 2.71513,1.42683 3.98959,2.27185c0.0554,0.04156 0.12468,0.08311 0.19394,0.12468c0.11082,0.0554 0.2355,0.08311 0.36016,0.02771l0.62338,-0.24936c2.17489,-0.95584 4.41902,-1.73159 6.71858,-2.34111c1.50995,-0.40173 3.01989,-0.76189 4.55755,-1.01125c0.24936,-0.04156 0.48484,-0.09697 0.72034,-0.15237c0.09697,-0.02771 0.18008,-0.09697 0.22165,-0.19394c0.06926,-0.15237 0.12468,-0.31861 0.18008,-0.48484c0.30476,-0.94199 0.60952,-1.88397 0.92814,-2.8121c0.58181,-1.67617 1.13593,-3.36622 1.85627,-5.00084c0.01385,-0.04156 0.02771,-0.09697 0.0554,-0.13853c0.04156,-0.12468 0.02771,-0.24936 -0.0554,-0.34632c-0.27705,-0.31861 -0.58181,-0.60952 -0.90043,-0.88657c-0.80346,-0.66493 -1.66233,-1.24675 -2.56276,-1.7593c-1.48224,-0.81731 -3.03375,-1.44069 -4.65452,-1.89782c-0.29091,-0.08311 -0.58181,-0.12468 -0.87272,-0.11082c-0.56796,0.01385 -1.13593,0.12468 -1.69003,0.20779c-1.12207,0.18008 -2.21644,0.47099 -3.3108,0.7896c-2.39652,0.72034 -4.68223,1.73159 -6.89866,2.89522c-0.15237,0.08311 -0.30476,0.16623 -0.44329,0.2632c-0.2632,0.15237 -0.47099,0.36016 -0.65108,0.60952c-0.09697,0.13853 -0.19394,0.29091 -0.27705,0.42944c-1.38527,2.14718 -2.17489,4.48829 -2.65973,6.96792zM317.03614,222.72803c-0.04156,-0.0554 -0.09697,-0.08311 -0.09697,-0.12468c-0.09697,-0.51255 -0.20779,-1.01125 -0.30476,-1.5238c-0.19394,-0.99739 -0.37402,-1.99479 -0.56796,-2.9922c-0.22165,-1.19133 -0.42944,-2.38268 -0.65108,-3.57401c-0.16623,-0.92814 -0.36016,-1.84242 -0.52641,-2.77055c-0.18008,-0.94199 -0.34632,-1.89782 -0.51255,-2.83981c-0.11082,-0.60952 -0.2355,-1.21904 -0.34632,-1.81471l-0.54026,-2.90907c-0.12468,-0.63723 -0.24936,-1.2606 -0.36016,-1.89782c-0.18008,-0.94199 -0.34632,-1.89782 -0.52641,-2.83981c-0.16623,-0.92814 -0.36016,-1.84242 -0.51255,-2.77055c-0.18008,-1.05281 -0.41558,-2.07792 -0.56796,-3.13072c-0.06926,-0.41558 -0.06926,-0.83117 -0.01385,-1.2606c0.01385,-0.12468 0.04156,-0.24936 0.04156,-0.37402c0.01385,-0.41558 0.16623,-0.77575 0.38787,-1.10822c0.24936,-0.37402 0.51255,-0.7342 0.77575,-1.09436c0.11082,-0.16623 0.24936,-0.30476 0.37402,-0.47099c0.18008,-0.24936 0.41558,-0.42944 0.67878,-0.55412c0.44329,-0.20779 0.90043,-0.41558 1.35757,-0.60952c0.7342,-0.30476 1.4684,-0.59567 2.20258,-0.88657c1.64848,-0.67878 3.22768,-1.50995 4.69608,-2.53505c1.71774,-1.20519 3.22768,-2.60431 4.52984,-4.25279c0.96969,-1.2329 1.81471,-2.53505 2.50734,-3.93417c0.4987,-1.0251 0.90043,-2.09176 1.2606,-3.17228c0.24936,-0.74805 0.4987,-1.50995 0.74805,-2.258c0.16623,-0.4987 0.37402,-0.96969 0.59567,-1.44069c0.51255,-1.03896 1.2883,-1.81471 2.29955,-2.34111c0.85888,-0.45713 1.77316,-0.74805 2.72899,-0.90043c0.16623,-0.02771 0.34632,-0.04156 0.51255,-0.02771c0.85888,0.08311 1.71774,0.20779 2.57661,0.30476c0.83117,0.09697 1.67617,0.13853 2.5212,0.04156c1.13593,-0.15237 2.23029,-0.44329 3.19998,-1.09436c0.34632,-0.2355 0.72034,-0.42944 1.09436,-0.63723c0.01385,-0.01385 0.0554,-0.01385 0.06926,0c0.02771,0.02771 0.06926,0.08311 0.06926,0.11082c-0.2632,0.98354 -0.63723,1.92553 -1.16364,2.79825c-0.30476,0.51255 -0.67878,0.96969 -1.10822,1.38527c-0.31861,0.30476 -0.62338,0.63723 -0.95584,0.94199c-0.85888,0.81731 -1.81471,1.53766 -2.89522,2.06406c-0.36016,0.16623 -0.72034,0.31861 -1.10822,0.41558c-0.63723,0.18008 -1.27445,0.16623 -1.91168,0.09697c-0.30476,-0.04156 -0.55412,-0.19394 -0.76189,-0.42944c-0.18008,-0.20779 -0.33247,-0.42944 -0.45713,-0.67878c-0.09697,-0.19394 -0.20779,-0.40173 -0.30476,-0.59567c-0.02771,-0.0554 -0.06926,-0.06926 -0.12468,-0.04156c-0.02771,0.01385 -0.04156,0.02771 -0.0554,0.04156c-0.20779,0.34632 -0.2632,0.7342 -0.31861,1.13593c-0.01385,0.06926 0,0.15237 0.01385,0.22165c0.0554,0.22165 0.08311,0.42944 0.18008,0.63723c0.09697,0.22165 0.16623,0.47099 0.24936,0.69263c0.15237,0.36016 0.13853,0.7342 0.04156,1.09436c-0.2355,0.85888 -0.48484,1.71774 -0.7896,2.5489c-0.72034,1.91168 -1.69003,3.68483 -2.85367,5.36101c-1.21904,1.7593 -2.61816,3.35236 -4.18353,4.8069c-1.48224,1.37141 -3.08917,2.5489 -4.82074,3.58786c-0.70649,0.41558 -1.41298,0.81731 -2.14718,1.16364c-1.08051,0.51255 -2.18873,0.91428 -3.35236,1.16364c-0.48484,0.11082 -0.98354,0.13853 -1.4684,0.19394c-0.09697,0.01385 -0.19394,0 -0.29091,-0.01385c-0.20779,-0.04156 -0.37402,-0.12468 -0.4987,-0.30476c-0.13853,-0.20779 -0.2632,-0.41558 -0.38787,-0.63723c-0.06926,-0.12468 -0.15237,-0.2632 -0.22165,-0.38787c-0.02771,-0.0554 -0.13853,-0.06926 -0.19394,-0.02771c-0.08311,0.09697 -0.16623,0.18008 -0.2355,0.27705c-0.02771,0.04156 -0.02771,0.09697 -0.02771,0.13853c0,0.02771 0.01385,0.0554 0.01385,0.06926c0.20779,0.52641 0.52641,1.01125 0.90043,1.44069c0.30476,0.34632 0.66493,0.58181 1.12207,0.67878c0.09697,0.01385 0.19394,0.0554 0.27705,0.08311c0.09697,0.02771 0.16623,0.11082 0.18008,0.20779c0.01385,0.16623 0.01385,0.34632 0.01385,0.51255c0.01385,1.32986 0.01385,2.67358 0.02771,4.00345c0.00415,0.79875 0.00415,1.59902 0.00415,2.39985c0,1.6018 0,3.2058 0.0374,4.80357c0.04156,2.00864 0.04156,4.00345 0.02771,6.01209c-0.01385,1.63462 -0.04156,3.26925 -0.04156,4.90387c0,1.35757 -0.01385,2.72899 -0.02771,4.08656c-0.02771,0.31861 -0.01385,0.56796 -0.08311,0.83117zM215.06616,171.25127c-0.06926,0.47099 -0.06926,0.94199 -0.2355,1.42683c-0.40173,0.33247 -0.88657,0.59567 -1.39912,0.77575c-0.42944,0.15237 -0.87272,0.16623 -1.31601,0.01385c-1.14978,-0.40173 -2.258,-0.88657 -3.2831,-1.5238c-1.5238,-0.95584 -2.71513,-2.21644 -3.58786,-3.7818c-0.55412,-0.96969 -0.98354,-1.99479 -1.27445,-3.07531c-0.01385,-0.0554 0,-0.09697 0.0554,-0.12468c0.01385,-0.01385 0.0554,-0.01385 0.06926,0c0.06926,0.02771 0.13853,0.06926 0.19394,0.11082l0.7896,0.54026c0.09697,0.06926 0.20779,0.13853 0.30476,0.20779c0.70649,0.51255 1.49609,0.76189 2.34111,0.85888c0.54026,0.0554 1.08051,0.08311 1.63462,0.11082c0.08311,0.00928 0.16623,0.0061 0.24936,0.00305c0.04156,-0.00152 0.08311,-0.00305 0.12468,-0.00305c1.19133,-0.06926 2.36882,-0.08311 3.56015,-0.08311c0.74805,0 1.48224,0.11082 2.20258,0.27705c0.45713,0.11082 0.90043,0.27705 1.30215,0.52641c0.33247,0.20779 0.67878,0.41558 0.99739,0.65108c1.12207,0.77575 1.74545,1.85627 1.98093,3.18613c0.06926,0.38787 0.11082,0.7896 0.19394,1.16364c0.12468,0.60952 0.33247,1.19133 0.58181,1.7593c0.7896,1.82856 1.787,3.53244 2.96449,5.12551c1.24675,1.67617 2.64587,3.19998 4.18353,4.61297c0.80346,0.74805 1.71774,1.34372 2.67358,1.87013c1.17748,0.63723 2.41037,1.16364 3.65712,1.62077c0.54026,0.19394 1.06665,0.38787 1.60691,0.56796c0.41558,0.12468 0.77575,0.31861 1.10822,0.58181c0.55412,0.42944 1.09436,0.85888 1.63462,1.27445c0.2355,0.18008 0.44329,0.38787 0.60952,0.63723c0.20779,0.30476 0.27705,0.62338 0.22165,0.98354c-0.19394,1.14978 -0.37402,2.28569 -0.56796,3.43548c-0.16623,1.0251 -0.34632,2.05021 -0.52641,3.07531c-0.12468,0.7342 -0.2355,1.4684 -0.34632,2.20258c-0.12468,0.77575 -0.2632,1.56536 -0.40173,2.34111c-0.12468,0.7342 -0.2355,1.4684 -0.34632,2.20258c-0.12468,0.76189 -0.2632,1.50995 -0.38787,2.27185c-0.12468,0.7342 -0.2355,1.4684 -0.34632,2.20258c-0.11082,0.70649 -0.2355,1.41298 -0.34632,2.11947c-0.12468,0.76189 -0.24936,1.50995 -0.37402,2.27185c-0.12468,0.7342 -0.2355,1.4684 -0.36016,2.18873c-0.12468,0.77575 -0.2632,1.56536 -0.38787,2.34111c-0.12468,0.77575 -0.2632,1.56536 -0.38787,2.34111c-0.06926,0.44329 -0.12468,0.88657 -0.2632,1.31601c-0.06013,-0.0097 -0.0622,-0.05679 -0.06414,-0.09697c-0.00069,-0.01524 -0.00125,-0.03047 -0.00513,-0.04156c-0.01385,-0.22165 -0.01385,-0.44329 -0.01385,-0.66493c0,-5.76273 -0.01385,-11.52547 -0.01385,-17.28822c0,-2.60431 0.01385,-5.19478 0.02771,-7.79909c0,-0.22165 0,-0.44329 0.01385,-0.66493c0,-0.11082 0.06926,-0.18008 0.16623,-0.22165c0.11082,-0.0554 0.2355,-0.08311 0.34632,-0.13853c0.65108,-0.2632 1.12207,-0.72034 1.35757,-1.38527c0.01385,-0.0554 -0.06926,-0.16623 -0.11082,-0.16623c-0.31861,0.0554 -0.63723,0.09697 -0.94199,0.16623c-0.44329,0.09697 -0.88657,0.12468 -1.32986,0.11082c-0.47099,0 -0.92814,-0.09697 -1.38527,-0.2355c-1.63462,-0.51255 -3.18613,-1.20519 -4.65452,-2.09176c-0.59567,-0.36016 -1.17748,-0.7342 -1.74545,-1.13593c-0.92814,-0.65108 -1.88397,-1.2883 -2.82596,-1.92553c-0.13853,-0.09697 -0.29091,-0.19394 -0.42944,-0.29091c-0.22165,-0.15237 -0.41558,-0.34632 -0.58181,-0.56796c-0.48484,-0.69263 -1.03896,-1.31601 -1.63462,-1.92553c-0.4987,-0.51255 -0.92814,-1.09436 -1.34372,-1.67617c-0.77575,-1.10822 -1.55151,-2.23029 -2.24414,-3.40777c-0.76189,-1.27445 -1.39912,-2.61816 -1.91168,-4.00345c-0.22165,-0.60952 -0.45713,-1.20519 -0.69263,-1.80085l-0.08311,-0.20779c-0.04156,-0.09697 -0.02771,-0.19394 0.04156,-0.27705c0.16623,-0.18008 0.34632,-0.36016 0.51255,-0.54026c0.15237,-0.16623 0.30476,-0.33247 0.44329,-0.4987c0.19394,-0.2632 0.30476,-0.56796 0.29091,-0.90043c-0.01385,-0.27705 0,-0.54026 -0.13853,-0.7896c-0.0554,-0.08311 -0.09697,-0.09697 -0.15237,-0.13853zM411.0685,168.02358v2.00864c0,0.58181 -0.16623,1.12207 -0.47099,1.62077c-0.48484,0.77575 -0.95584,1.55151 -1.44069,2.32726c-0.13853,0.2355 -0.30476,0.45713 -0.45713,0.67878c-0.40173,0.58181 -0.91428,1.03896 -1.49609,1.42683c-0.51255,0.33247 -1.03896,0.67878 -1.56536,0.99739c-0.27705,0.16623 -0.56796,0.31861 -0.85888,0.44329c-0.62338,0.27705 -1.27445,0.41558 -1.93938,0.42944c-1.13593,0.02771 -2.27185,0.0554 -3.40777,-0.06926c-0.24936,-0.02771 -0.4987,-0.02771 -0.7342,-0.04156c-0.37402,-0.01385 -0.74805,-0.02771 -1.10822,-0.09697c-0.04156,-0.01385 -0.09697,-0.01385 -0.15237,-0.01385c-0.81731,-0.06926 -1.62077,-0.12468 -2.43808,-0.19394c-0.72034,-0.06926 -1.42683,-0.15237 -2.13332,-0.22165l-0.29091,-0.04156c-0.84502,-0.06926 -1.67617,-0.18008 -2.50734,-0.29091c-0.60952,-0.08311 -1.2329,-0.12468 -1.84242,-0.19394c-0.59567,-0.06926 -1.17748,-0.15237 -1.7593,-0.22165c-0.15237,-0.01385 -0.29091,-0.02771 -0.44329,-0.0554c-0.69263,-0.08311 -1.37141,-0.16623 -2.06406,-0.2632c-0.51255,-0.06926 -1.0251,-0.12468 -1.55151,-0.19394l-1.91168,-0.24936c-0.41558,-0.0554 -0.83117,-0.08311 -1.24675,-0.15237c-0.58181,-0.09697 -1.17748,-0.13853 -1.77316,-0.20779c-0.59567,-0.06926 -1.17748,-0.15237 -1.7593,-0.22165c-0.51255,-0.06926 -1.0251,-0.13853 -1.53766,-0.19394c-0.7896,-0.09697 -1.56536,-0.19394 -2.35497,-0.27705c-0.70649,-0.06926 -1.42683,-0.12468 -2.14718,-0.19394c-0.37402,-0.04156 -0.7342,-0.09697 -1.10822,-0.13853c-0.08311,-0.01385 -0.15237,-0.15237 -0.11082,-0.2355c0.15237,-0.36016 0.37402,-0.69263 0.59567,-1.0251c0.15237,-0.22165 0.31861,-0.44329 0.48484,-0.65108c0.83117,-1.09436 1.48224,-2.27185 1.91168,-3.58786c0.18008,-0.56796 0.19394,-0.56796 0.7896,-0.56796l8.08999,-0.04156c1.03896,0 2.07792,0.02771 3.11686,0.12468c0.98354,0.08311 1.96709,0.20779 2.96449,0.20779c0.98354,0 1.98093,0.02771 2.96449,0.02771c0.52641,0 1.03896,0 1.56536,0.01385c1.16364,0.02771 2.32726,0.06926 3.49089,0.11082c0.09697,0 0.19394,0 0.29091,0.01385c0.70649,0.11082 1.42683,0.09697 2.14718,0.15237c2.10007,0.15432 4.19046,0.12551 6.28914,0.0967c0.35047,-0.00485 0.70095,-0.00955 1.05281,-0.01358c0.72034,-0.01385 1.42683,-0.0554 2.14718,-0.08311c0.24936,-0.01385 0.48484,-0.06926 0.72034,-0.18008c0.54026,-0.2632 1.03896,-0.58181 1.49609,-0.95584c0.59567,-0.4987 1.13593,-1.0251 1.66233,-1.59306c0.18008,-0.20779 0.37402,-0.40173 0.56796,-0.58181c0.0554,-0.0554 0.11082,-0.09697 0.19394,-0.08311c0.04156,0 0.09697,0.08311 0.09697,0.18008v0.37402c-0.01385,0.60952 -0.01385,1.24675 -0.02771,1.89782zM183.03863,174.64519c-0.12468,0.13853 -0.30476,0.15237 -0.47099,0.18008c-0.36016,0.0554 -0.7342,0.11082 -1.10822,0.15237c-0.56796,0.06926 -1.13593,0.12468 -1.69003,0.20779c-0.56796,0.06926 -1.12207,0.15237 -1.69003,0.2355c-0.44329,0.0554 -0.88657,0.09697 -1.32986,0.15237c-0.60952,0.09697 -1.2329,0.12468 -1.84242,0.20779c-0.63723,0.06926 -1.27445,0.16623 -1.91168,0.2355c-0.44329,0.0554 -0.88657,0.08311 -1.32986,0.15237c-0.63723,0.08311 -1.27445,0.12468 -1.91168,0.20779c-0.63723,0.06926 -1.27445,0.15237 -1.91168,0.22165c-0.06926,0.01385 -0.15237,0.01385 -0.22165,0.02771c-0.63723,0.06926 -1.27445,0.12468 -1.92553,0.19394c-0.69263,0.06926 -1.37141,0.16623 -2.06406,0.2355c-0.47099,0.0554 -0.94199,0.08311 -1.39912,0.13853c-0.66493,0.09697 -1.32986,0.13853 -1.99479,0.20779c-0.69263,0.06926 -1.37141,0.15237 -2.06406,0.2355c-0.06926,0.01385 -0.15237,0.01385 -0.22165,0.02771c-0.69263,0.06926 -1.38527,0.12468 -2.06406,0.19394c-0.92814,0.09697 -1.87013,0.19394 -2.79825,0.30476c-0.2632,0.02771 -0.54026,0.06926 -0.80346,0.12468c-0.70649,0.13853 -1.42683,0.16623 -2.13332,0.2355c-0.45045,0.04627 -0.91052,0.04419 -1.36419,0.04239c-0.09044,-0.00042 -0.18063,-0.00083 -0.27044,-0.00083c-0.56796,0 -1.13593,-0.02771 -1.70388,-0.09697c-0.47099,-0.0554 -0.92814,-0.18008 -1.35757,-0.36016c-1.31601,-0.56796 -2.47965,-1.32986 -3.44933,-2.39652c-0.2355,-0.24936 -0.48484,-0.4987 -0.70649,-0.76189c-0.47099,-0.55412 -0.83117,-1.16364 -1.13593,-1.82856c-0.56796,-1.27445 -0.94199,-2.60431 -1.13593,-3.97574c-0.08311,-0.58181 -0.11082,-1.17748 -0.12468,-1.77316c0,-0.44329 0.08311,-0.88657 0.12468,-1.32986c0.01385,-0.09697 0.06926,-0.18008 0.09697,-0.27705c0.02771,-0.0554 0.13853,-0.08311 0.18008,-0.02771c0.04156,0.0554 0.09697,0.11082 0.13853,0.16623c0.18008,0.29091 0.36016,0.59567 0.54026,0.88657c0.08311,0.15237 0.18008,0.30476 0.24936,0.45713c0.58181,1.12207 1.53766,1.787 2.67358,2.23029c0.48484,0.19394 0.99739,0.29091 1.50995,0.36016c0.69263,0.09697 1.38527,0.11082 2.07792,0.11082c0.19855,0 0.39712,0.00152 0.59567,0.00305c0.39712,0.00305 0.79422,0.00623 1.19133,-0.00305c0.54026,0 1.08051,-0.02771 1.63462,-0.06926c0.47099,-0.04156 0.94199,-0.04156 1.41298,-0.0554c0.84502,-0.02771 1.67617,-0.02771 2.5212,-0.09697c0.56796,-0.04156 1.13593,-0.04156 1.70388,-0.04156c0.63723,-0.01385 1.2883,0 1.92553,-0.0554c1.38527,-0.09697 2.77055,-0.06926 4.15582,-0.15237c1.35757,-0.08311 2.71513,-0.08311 4.08656,-0.12468c0.34632,-0.01385 0.69263,-0.04156 1.03896,-0.06926c0.4987,-0.02771 0.98354,-0.04156 1.48224,-0.0554c0.74805,-0.02771 1.48224,-0.02771 2.23029,-0.09697c0.44329,-0.04156 0.88657,-0.04156 1.32986,-0.04156c1.06665,-0.01385 2.11947,-0.13853 3.18613,-0.18008c0.7896,-0.12468 1.57921,-0.12468 2.36882,-0.16623c0.4987,-0.01385 0.98354,-0.0554 1.48224,-0.06926h0.37402c0.11082,0.01385 0.19394,0.06926 0.2355,0.15237c0.06926,0.13853 0.12468,0.2632 0.18008,0.40173c0.7342,1.85627 1.787,3.51859 3.11686,5.0147c0.11082,0.12468 0.24936,0.22165 0.29091,0.40173zM258.96547,165.93182c-0.67878,0.01385 -1.03896,0.0554 -1.59306,0.20779c-0.72034,0.20779 -1.38527,0.48484 -1.98093,0.95584c-0.72034,0.56796 -1.44069,1.12207 -2.13332,1.73159c-2.24414,1.99479 -4.21124,4.23893 -5.87356,6.76013c-1.88397,2.86752 -3.2831,5.97053 -4.22508,9.28134c-0.02771,0.09697 -0.04156,0.19394 -0.0554,0.29091c-0.01385,0.06926 0.06926,0.16623 0.12468,0.15237c0.13853,-0.02771 0.29091,-0.06926 0.42944,-0.11082c1.12207,-0.31861 2.258,-0.55412 3.43548,-0.54026c0.0554,0 0.09697,0 0.15237,-0.01385c0.09697,-0.01385 0.19394,-0.0554 0.24936,-0.13853c0.13853,-0.18008 0.2632,-0.36016 0.38787,-0.54026c0.76189,-1.12207 1.53766,-2.24414 2.36882,-3.32465c1.03896,-1.35757 2.16103,-2.63202 3.40777,-3.8095c0.7896,-0.74805 1.64848,-1.41298 2.60431,-1.96709c0.06926,-0.04156 0.12468,-0.06926 0.19394,-0.11082c0.11082,-0.06926 0.18008,-0.16623 0.22165,-0.29091c0.04156,-0.11082 0.06926,-0.2355 0.09697,-0.36016c0.15237,-0.65108 0.27705,-1.30215 0.44329,-1.95324c0.52641,-1.99479 1.30215,-3.89262 2.45194,-5.61036c0.06926,-0.09697 0.12468,-0.20779 0.19394,-0.31861c0.02771,-0.04156 -0.01385,-0.15237 -0.08311,-0.18008c-0.09697,-0.04156 -0.18008,-0.08311 -0.27705,-0.09697c-0.2355,0 -0.45713,-0.01385 -0.54026,-0.01385zM364.02462,173.71705c-0.54026,-0.01385 -1.03896,-0.01385 -1.53766,-0.0554c-0.56796,-0.04156 -1.13593,-0.09697 -1.69003,-0.18008c-1.09436,-0.16623 -2.20258,-0.31861 -3.3108,-0.42944c-0.66493,-0.06926 -1.32986,-0.16623 -1.98093,-0.2355c-0.63723,-0.06926 -1.27445,-0.12468 -1.91168,-0.19394c-0.66493,-0.06926 -1.32986,-0.15237 -1.98093,-0.2355l-1.32986,-0.16623c-0.59567,-0.06926 -1.17748,-0.12468 -1.77316,-0.19394c-0.48484,-0.0554 -0.98354,-0.11082 -1.4684,-0.18008c-0.54026,-0.08311 -1.06665,-0.16623 -1.60691,-0.24936c-0.2632,-0.04156 -0.52641,-0.09697 -0.7896,-0.19394c-0.0554,-0.02771 -0.09697,-0.12468 -0.0554,-0.19394c0.11082,-0.16623 0.22165,-0.33247 0.34632,-0.48484c0.69263,-0.84502 1.34372,-1.70388 1.99479,-2.59045c0.18008,-0.2355 0.36016,-0.47099 0.59567,-0.66493c0.30476,-0.2355 0.65108,-0.38787 1.03896,-0.31861c1.63462,0.29091 3.29696,0.29091 4.95928,0.30476c1.2606,0 2.5212,-0.01385 3.7818,-0.01385c0.63723,0 1.2883,0.01385 1.92553,0.06926c0.37402,0.04156 0.7342,0.02771 1.10822,0.0554c0.22165,0.01385 0.44329,0 0.66493,0.04156c0.47099,0.08311 0.92814,0.08311 1.39912,0.11082c0.74805,0.02771 1.48224,0.06926 2.23029,0.08311c1.2329,0.02771 2.46579,0.0554 3.71253,-0.02771c0.22165,-0.01385 0.44329,-0.01385 0.66493,-0.02771c0.15237,0 0.29091,-0.06926 0.38787,-0.19394l0.62338,-0.83117c0.24936,-0.31861 0.54026,-0.56796 0.91428,-0.7342c0.04156,-0.01385 0.09697,-0.02771 0.13853,-0.04156c0.04156,-0.01385 0.16623,0.06926 0.16623,0.11082c0,0.02771 0.01385,0.0554 0.01385,0.06926c-0.08311,0.51255 -0.18008,1.0251 -0.38787,1.50995c-0.12468,0.29091 -0.24936,0.59567 -0.36016,0.88657c-0.2632,0.66493 -0.54026,1.32986 -0.7896,1.99479c-0.16623,0.44329 -0.40173,0.84502 -0.72034,1.19133c-0.42944,0.47099 -0.90043,0.91428 -1.42683,1.2883c-0.54026,0.37402 -1.14978,0.58181 -1.80085,0.60952c-0.60952,0.06926 -1.19133,0.08311 -1.74545,0.11082zM186.98666,174.39584c-0.62338,-0.04156 -1.24675,-0.13853 -1.85627,-0.37402c-1.01125,-0.40173 -1.85627,-1.0251 -2.56276,-1.84242c-0.18008,-0.20779 -0.31861,-0.44329 -0.41558,-0.69263c-0.08311,-0.2355 -0.16623,-0.47099 -0.24936,-0.69263c-0.47099,-1.30215 -0.90043,-2.61816 -1.44069,-3.89262c-0.01385,-0.04156 -0.02771,-0.09697 -0.04156,-0.13853c-0.01385,-0.0554 -0.01385,-0.11082 0.04156,-0.12468c0.04156,-0.02771 0.08311,-0.0554 0.12468,-0.04156c0.19394,0.04156 0.36016,0.15237 0.4987,0.30476c0.16623,0.18008 0.33247,0.37402 0.4987,0.55412c0.12468,0.15237 0.24936,0.30476 0.40173,0.44329c0.19394,0.19394 0.44329,0.31861 0.72034,0.34632c0.44329,0.04156 0.88657,0.08311 1.32986,0.09697c1.67617,0.04156 3.36622,0.06926 5.04239,-0.01385c1.16364,-0.0554 2.32726,-0.06926 3.47704,-0.15237c0.7896,-0.0554 1.57921,-0.06926 2.36882,-0.12468c1.38527,-0.11082 2.77055,-0.09697 4.15582,-0.18008c1.20519,-0.06926 2.42423,-0.06926 3.62941,-0.0554c0.27705,0 0.54026,0.04156 0.81731,0.04156c0.2632,0 0.40173,0.15237 0.48484,0.37402c0.48484,1.21904 1.13593,2.35497 1.96709,3.38007c0.02771,0.04156 0.06926,0.08311 0.06926,0.12468c0,0.04156 -0.01385,0.08311 -0.04156,0.12468c-0.01385,0.01385 -0.04156,0.04156 -0.0554,0.04156c-0.44329,0.0554 -0.88657,0.12468 -1.31601,0.18008c-0.58181,0.08311 -1.17748,0.16623 -1.7593,0.2355c-0.48484,0.06926 -0.98354,0.12468 -1.4684,0.18008c-0.66493,0.08311 -1.31601,0.18008 -1.98093,0.2632l-1.32986,0.16623c-0.92814,0.11082 -1.87013,0.22165 -2.79825,0.34632c-0.51255,0.06926 -1.0251,0.15237 -1.53766,0.22165l-1.24675,0.16623c-0.54026,0.06926 -1.08051,0.12468 -1.62077,0.19394c-0.54026,0.06926 -1.08051,0.16623 -1.62077,0.22165c-0.60952,0.06926 -1.21904,0.18008 -1.82856,0.29091c-0.13853,0 -0.27705,0.01385 -0.45713,0.02771zM308.58597,190.25722v-0.16623c-0.0554,-0.47099 -0.09697,-0.92814 -0.18008,-1.39912c-0.13853,-0.74805 -0.2632,-1.50995 -0.44329,-2.258c-0.58181,-2.56276 -1.4684,-5.02854 -2.64587,-7.3835c-0.94199,-1.88397 -2.03635,-3.67098 -3.32465,-5.34715c-1.03896,-1.35757 -2.17489,-2.63202 -3.39393,-3.82335c-0.2355,-0.22165 -0.47099,-0.42944 -0.72034,-0.63723c-0.06926,-0.0554 -0.20779,-0.06926 -0.27705,-0.01385c-0.56796,0.40173 -1.13593,0.80346 -1.69003,1.20519c-0.06926,0.0554 -0.11082,0.19394 -0.06926,0.2632c0.04156,0.08311 0.09697,0.16623 0.13853,0.2632c0.31861,0.56796 0.63723,1.12207 0.92814,1.69003c0.85888,1.67617 1.5238,3.43548 2.00864,5.25018c0.16623,0.65108 0.30476,1.30215 0.42944,1.95324c0.09697,0.48484 0.13853,0.98354 0.19394,1.4684c0.02771,0.2355 0.11082,0.42944 0.2632,0.59567c0.20779,0.20779 0.41558,0.42944 0.62338,0.63723c0.84502,0.83117 1.64848,1.71774 2.38268,2.64587c1.39912,1.74545 2.57661,3.62941 3.43548,5.70733c0.04156,0.11082 0.09697,0.22165 0.15237,0.33247c0.02771,0.06926 0.18008,0.11082 0.2632,0.08311c0.20779,-0.08311 0.41558,-0.16623 0.60952,-0.2632c0.40173,-0.19394 0.7896,-0.41558 1.17748,-0.62338c0.08311,-0.04156 0.11082,-0.12468 0.13853,-0.18008zM344.13209,172.31793c0.15237,0.01385 0.29091,0.01385 0.44329,0.02771c0.56796,0.06926 1.12207,0.15237 1.69003,0.22165l1.53766,0.20779c0.56796,0.08311 1.12207,0.16623 1.69003,0.24936c0.38787,0.0554 0.77575,0.12468 1.17748,0.18008c0.83117,0.11082 1.66233,0.22165 2.49349,0.34632c0.85888,0.12468 1.70388,0.2632 2.56276,0.38787c0.54026,0.08311 1.08051,0.13853 1.62077,0.20779c0.51255,0.06926 1.0251,0.15237 1.53766,0.22165c0.41558,0.0554 0.83117,0.12468 1.24675,0.16623c0.63723,0.06926 1.27445,0.12468 1.92553,0.19394c0.27705,0.02771 0.54026,0.0554 0.81731,0.08311c0.02771,0 0.0554,0.01385 0.06926,0.01385c0.87272,0.11082 1.73159,0.02771 2.5489,-0.29091c0.31861,-0.12468 0.65108,-0.24936 0.96969,-0.37402c0.09697,-0.02771 0.19394,-0.04156 0.29091,-0.04156c0.04156,0 0.08311,0.04156 0.12468,0.06926c0.00832,0.00901 0.00693,0.02369 0.00278,0.04045c-0.00139,0.00915 -0.00278,0.01897 -0.00278,0.02881c-0.20779,0.45713 -0.4987,0.85888 -0.7896,1.24675c-0.34632,0.45713 -0.70649,0.88657 -1.03896,1.35757c-0.51255,0.70649 -1.13593,1.30215 -1.787,1.87013c-0.31861,0.27705 -0.65108,0.54026 -0.99739,0.76189c-0.52641,0.33247 -1.09436,0.56796 -1.71774,0.66493c-0.27705,0.04156 -0.54026,0.0554 -0.81731,0c-0.48484,-0.09697 -0.96969,-0.18008 -1.45454,-0.29091c-1.24675,-0.29091 -2.50734,-0.59567 -3.75409,-0.88657c-2.5212,-0.60952 -5.04239,-1.21904 -7.57744,-1.7593c-1.88397,-0.41558 -3.76795,-0.84502 -5.63806,-1.2606c-0.74805,-0.16623 -1.49609,-0.31861 -2.24414,-0.48484c-0.22165,-0.04156 -0.42944,-0.11082 -0.65108,-0.16623c-0.31861,-0.09697 -0.56796,-0.29091 -0.76189,-0.55412c-0.0554,-0.08311 -0.02771,-0.19394 0.08311,-0.2355l0.4987,-0.16623c1.32986,-0.38787 2.61816,-0.88657 3.87877,-1.45454c0.27705,-0.12468 0.54026,-0.2355 0.81731,-0.34632c0.37402,-0.18008 0.7896,-0.2632 1.20519,-0.2355zM185.50442,175.26856c0.44329,0.04156 0.88657,0.09697 1.32986,0.13853c0.98354,0.11082 1.96709,0.12468 2.95063,-0.0554c0.48484,-0.09697 0.98354,-0.12468 1.4684,-0.19394c0.56796,-0.08311 1.12207,-0.16623 1.69003,-0.2355c0.48484,-0.06926 0.98354,-0.13853 1.4684,-0.19394l1.82856,-0.24936l1.62077,-0.20779l1.82856,-0.24936c0.80346,-0.11082 1.60691,-0.2355 2.42423,-0.36016c0.44329,-0.06926 0.87272,-0.15237 1.31601,-0.22165c1.34372,-0.20779 2.70128,-0.29091 4.05885,-0.24936c0.45713,0.01385 0.87272,0.11082 1.27445,0.33247c1.10822,0.60952 2.28569,1.05281 3.51859,1.37141c0.06926,0.01385 0.13853,0.04156 0.20779,0.08311c0.09697,0.0554 0.15237,0.12468 0.15237,0.2355c0.01385,0.11082 -0.04156,0.20779 -0.12468,0.24936c-0.13853,0.0554 -0.27705,0.12468 -0.41558,0.16623c-0.83117,0.30476 -1.69003,0.52641 -2.56276,0.72034c-0.87272,0.19394 -1.74545,0.34632 -2.60431,0.54026c-1.53766,0.36016 -3.07531,0.74805 -4.59911,1.12207c-2.258,0.56796 -4.50214,1.13593 -6.76013,1.69003c-1.17748,0.29091 -2.35497,0.54026 -3.5463,0.74805c-0.41558,0.06926 -0.83117,0.11082 -1.24675,0.15237c-0.31861,0.02771 -0.63723,-0.02771 -0.95584,-0.11082c-0.19394,-0.04156 -0.36016,-0.15237 -0.51255,-0.27705c-0.31861,-0.2632 -0.65108,-0.52641 -0.96969,-0.81731c-1.2883,-1.20519 -2.45194,-2.50734 -3.57401,-3.86491c-0.02771,-0.04156 -0.04156,-0.08311 -0.0554,-0.13853c-0.01385,-0.04156 0.01385,-0.11082 0.06926,-0.11082c0.16734,-0.00928 0.33454,-0.0061 0.49773,-0.00305c0.07993,0.00152 0.15903,0.00305 0.23647,0.00305c-0.01385,0 -0.01385,0 -0.01385,-0.01385zM368.29126,175.86423c0.76189,0.09697 1.5238,0.18008 2.28569,0.27705c0.51255,0.06926 1.0251,0.12468 1.55151,0.19394c0.66493,0.08311 1.31601,0.18008 1.98093,0.2632l1.62077,0.20779c0.47099,0.0554 0.92814,0.12468 1.39912,0.19394c0.54026,0.06926 1.08051,0.16623 1.62077,0.22165c0.66493,0.08311 1.31601,0.18008 1.98093,0.27705c0.88657,0.12468 1.7593,0.2355 2.64587,0.34632c0.51255,0.06926 1.0251,0.15237 1.53766,0.22165c0.38787,0.0554 0.77575,0.11082 1.17748,0.16623c0.88657,0.12468 1.7593,0.2355 2.64587,0.36016c0.85888,0.12468 1.71774,0.24936 2.56276,0.37402c0.44329,0.06926 0.88657,0.12468 1.31601,0.18008c0.48484,0.06926 0.98354,0.11082 1.4684,0.19394c1.05281,0.18008 2.10561,0.27705 3.15843,0.41558c0.48484,0.06926 0.98354,0.13853 1.4684,0.20779c0.7342,0.09697 1.4684,0.18008 2.21644,0.19394c0.47099,0 0.94199,-0.06926 1.39912,-0.15237c0.38787,-0.06926 0.76189,-0.20779 1.12207,-0.38787c0.33247,-0.16623 0.66493,-0.33247 0.99739,-0.48484c0.24936,-0.11082 0.51255,-0.19394 0.76189,-0.27705c0.06788,-0.02258 0.15376,-0.00832 0.2355,0.00513c0.01939,0.00305 0.0374,0.0061 0.0554,0.00872c0.0554,0 0.08311,0.0554 0.06926,0.11082c-0.02771,0.06926 -0.0554,0.13853 -0.09697,0.19394c-0.7342,1.0251 -1.50995,2.0225 -2.42423,2.89522c-0.87272,0.84502 -1.73159,1.70388 -2.60431,2.5489c-0.54026,0.51255 -1.09436,0.99739 -1.70388,1.44069c-0.34632,0.24936 -0.69263,0.48484 -1.03896,0.70649c-0.72034,0.45713 -1.50995,0.72034 -2.35497,0.85888c-0.85888,0.13853 -1.71774,0.12468 -2.59045,0.02771c-1.39912,-0.15237 -2.78441,-0.41558 -4.15582,-0.7342c-1.85627,-0.41558 -3.71253,-0.85888 -5.55494,-1.2883c-1.92553,-0.45713 -3.85106,-0.90043 -5.77659,-1.32986c-1.59306,-0.36016 -3.18613,-0.69263 -4.77919,-1.0251c-0.41558,-0.08311 -0.81731,-0.19394 -1.21904,-0.31861c-1.27445,-0.38787 -2.56276,-0.7342 -3.86491,-1.05281c-1.27445,-0.31861 -2.5489,-0.60952 -3.8372,-0.85888c-0.12468,-0.02771 -0.2355,-0.06926 -0.34632,-0.12468c-0.02771,-0.01385 -0.0554,-0.08311 -0.0554,-0.12468c0.02771,-0.09697 0.0554,-0.19394 0.11082,-0.27705c0.19394,-0.31861 0.38787,-0.62338 0.60952,-0.92814c0.94199,-1.24675 1.98093,-2.41037 3.07531,-3.51859c0.0554,-0.0554 0.11082,-0.11082 0.16623,-0.15237c0.13853,-0.11082 0.29091,-0.18008 0.48484,-0.15237l0.66493,0.08311c0.00832,0.0169 0.01108,0.02327 0.01247,0.023c0.00139,-0.00027 0.00139,-0.00361 0.00139,-0.00915zM353.67662,185.104c-0.56796,0 -1.13593,-0.11082 -1.69003,-0.22165c-1.21904,-0.2355 -2.39652,-0.59567 -3.57401,-0.98354c-3.98959,-1.31601 -7.97917,-2.64587 -11.96876,-3.97574c-0.16623,-0.0554 -0.33247,-0.11082 -0.48484,-0.16623c-0.19394,-0.06926 -0.24936,-0.19394 -0.19394,-0.41558c0.04156,-0.13853 0.08311,-0.27705 0.13853,-0.42944c0.33247,-0.98354 0.74805,-1.93938 1.17748,-2.88137c0.01385,-0.04156 0.04156,-0.08311 0.06926,-0.12468c0.04156,-0.06926 0.16623,-0.13853 0.24936,-0.11082c0.45713,0.11082 0.91428,0.20779 1.37141,0.31861c2.65973,0.66493 5.31946,1.32986 7.99302,1.98093l5.98438,1.45454c1.34372,0.31861 2.68744,0.63723 4.045,0.94199c0.96969,0.20779 1.93938,0.34632 2.93678,0.31861c0.31861,-0.01385 0.63723,-0.04156 0.95584,-0.09697c0.1039,-0.02078 0.21472,-0.01814 0.3283,-0.01565c0.03879,0.00097 0.07619,0.0018 0.11497,0.0018c0.06926,0 0.12468,0.08311 0.11082,0.15237c-0.08311,0.29091 -0.24936,0.54026 -0.45713,0.76189c-0.92814,1.01125 -1.96709,1.87013 -3.17228,2.53505c-0.4987,0.27705 -1.03896,0.44329 -1.59306,0.59567c-0.56796,0.16623 -1.16364,0.24936 -1.74545,0.33247c-0.19394,0.02771 -0.38787,0.01385 -0.59567,0.02771zM279.31513,176.14128c-0.2632,0.02771 -0.4987,0.0554 -0.74805,0.09697c-0.90043,0.18008 -1.787,0.36016 -2.68744,0.55412c-2.36882,0.54026 -4.68223,1.2329 -6.94023,2.10561c-0.69263,0.2632 -1.37141,0.56796 -2.05021,0.85888c-0.29091,0.12468 -0.48484,0.33247 -0.56796,0.65108c-0.02771,0.09697 -0.04156,0.19394 -0.06926,0.29091c-0.22165,0.88657 -0.45713,1.77316 -0.66493,2.65973c-0.33247,1.34372 -0.66493,2.68744 -0.96969,4.03114c-0.37402,1.59306 -0.7342,3.17228 -1.09436,4.76534c-0.02771,0.13853 -0.0554,0.29091 -0.08311,0.44329c-0.02771,0.18008 0.02771,0.33247 0.15237,0.47099c0.55412,0.59567 1.10822,1.19133 1.67617,1.787c2.10561,2.20258 4.32205,4.2805 6.67702,6.21988l1.03896,0.83117c0.20779,0.16623 0.44329,0.20779 0.69263,0.13853c0.13853,-0.04156 0.27705,-0.08311 0.42944,-0.12468c1.7593,-0.56796 3.51859,-1.13593 5.29175,-1.71774c1.71774,-0.55412 3.43548,-1.12207 5.13936,-1.67617c0.33247,-0.11082 0.65108,-0.22165 0.98354,-0.31861c0.24936,-0.08311 0.41558,-0.24936 0.51255,-0.4987c0.09697,-0.24936 0.19394,-0.51255 0.29091,-0.76189c0.59567,-1.67617 1.03896,-3.40777 1.45454,-5.12551c0.36016,-1.4684 0.67878,-2.93678 0.99739,-4.40518c0.15237,-0.69263 0.29091,-1.39912 0.42944,-2.10561c0.01385,-0.06926 -0.01385,-0.15237 -0.04156,-0.20779c-0.04156,-0.08311 -0.11082,-0.16623 -0.18008,-0.2355c-1.45454,-1.69003 -2.97834,-3.3108 -4.58526,-4.84845c-0.84502,-0.80346 -1.71774,-1.56536 -2.63202,-2.29955c-0.58181,-0.47099 -1.17748,-0.90043 -1.81471,-1.2883c-0.11082,-0.06926 -0.20779,-0.13853 -0.31861,-0.19394c-0.08311,-0.04156 -0.20779,-0.06926 -0.31861,-0.09697zM156.16433,188.05464c-0.58181,0 -1.08051,-0.01385 -1.56536,-0.09697c-0.65108,-0.11082 -1.24675,-0.31861 -1.77316,-0.69263c-0.42944,-0.30476 -0.84502,-0.60952 -1.24675,-0.94199c-0.66493,-0.55412 -1.31601,-1.12207 -1.96709,-1.70388c-0.54026,-0.47099 -1.08051,-0.94199 -1.63462,-1.39912c-0.2355,-0.18008 -0.44329,-0.38787 -0.63723,-0.62338c-0.65108,-0.80346 -1.31601,-1.60691 -1.96709,-2.42423c-0.12468,-0.15237 -0.2355,-0.31861 -0.36016,-0.47099c-0.0554,-0.08311 -0.09697,-0.18008 -0.04156,-0.27705c0.08311,-0.12468 0.27705,-0.18008 0.38787,-0.12468c0.12468,0.06926 0.2632,0.13853 0.38787,0.22165c0.24936,0.15237 0.51255,0.30476 0.76189,0.45713c0.44329,0.2355 0.91428,0.37402 1.41298,0.37402c0.24448,-0.00332 0.48899,-0.00346 0.73348,-0.00361c0.79446,-0.00069 1.58892,-0.00125 2.38338,-0.10722c0.19394,-0.02771 0.40173,-0.02771 0.59567,-0.04156c0.40173,-0.02771 0.7896,-0.02771 1.17748,-0.11082c0.06926,-0.01385 0.15237,-0.01385 0.22165,-0.02771c0.76189,-0.01385 1.5238,-0.13853 2.28569,-0.19394c0.69263,-0.0554 1.37141,-0.15237 2.06406,-0.2355c0.47099,-0.0554 0.94199,-0.08311 1.39912,-0.15237c0.60952,-0.09697 1.2329,-0.12468 1.84242,-0.20779c0.59567,-0.06926 1.17748,-0.13853 1.7593,-0.22165c0.44329,-0.0554 0.88657,-0.08311 1.32986,-0.15237c0.55412,-0.09697 1.13593,-0.13853 1.69003,-0.20779c0.58181,-0.06926 1.17748,-0.15237 1.7593,-0.2355c0.41558,-0.0554 0.83117,-0.11082 1.24675,-0.15237c0.56796,-0.06926 1.13593,-0.12468 1.69003,-0.19394c0.51255,-0.0554 1.0251,-0.12468 1.55151,-0.19394c0.69263,-0.08311 1.37141,-0.16623 2.06406,-0.2632c0.58181,-0.08311 1.17748,-0.15237 1.7593,-0.2355c0.44329,-0.0554 0.88657,-0.08311 1.32986,-0.15237c0.60952,-0.09697 1.2329,-0.13853 1.84242,-0.20779c0.69263,-0.08311 1.37141,-0.16623 2.06406,-0.2355c0.16623,-0.01385 0.34632,-0.02771 0.51255,-0.04156c0.29091,-0.02771 0.59567,-0.06926 0.88657,-0.08311c0.31861,-0.02771 0.63723,-0.0554 0.95584,-0.06926c0.20613,-0.00444 0.37056,-0.0126 0.50466,-0.01926c0.29008,-0.01455 0.43858,-0.02188 0.56062,0.03159c0.17815,0.078 0.29949,0.28579 0.72173,0.79113c0.70649,0.83117 1.41298,1.64848 2.11947,2.47965c0.2355,0.27705 0.47099,0.56796 0.70649,0.85888c0.08311,0.11082 0.15237,0.24936 0.22165,0.38787c0.02771,0.0554 0,0.16623 -0.0554,0.19394c-0.16623,0.0554 -0.31861,0.12468 -0.48484,0.16623c-2.20258,0.59567 -4.39132,1.16364 -6.62161,1.64848c-2.17489,0.47099 -4.34976,0.92814 -6.52464,1.37141c-1.5238,0.30476 -3.0476,0.63723 -4.5714,0.95584l-4.5714,0.95584c-1.42683,0.30476 -2.85367,0.62338 -4.26664,0.92814c-0.80346,0.16623 -1.59306,0.36016 -2.39652,0.48484c-0.74805,0.12468 -1.53766,0.22165 -2.24414,0.19394zM191.00396,181.11441c0.13853,0.01385 0.38787,0 0.63723,0.04156c0.7896,0.09697 1.57921,0 2.35497,-0.15237c1.74545,-0.34632 3.47704,-0.74805 5.20863,-1.14978c2.49349,-0.59567 4.98699,-1.20519 7.49433,-1.80085c2.0225,-0.47099 4.045,-0.92814 6.06749,-1.34372c0.04156,-0.01385 0.09697,-0.02771 0.15237,-0.02771c0.03159,-0.00401 0.0615,-0.00776 0.08991,-0.0115c0.46961,-0.06054 0.51921,-0.0669 0.74126,0.46863c0.34632,0.81731 0.72034,1.62077 1.08051,2.43808c0.04156,0.08311 0.06926,0.18008 0.09697,0.27705c0.01385,0.04156 -0.04156,0.18008 -0.08311,0.19394c-0.13853,0.0554 -0.27705,0.11082 -0.41558,0.15237c-1.66233,0.45713 -3.29696,1.0251 -4.91773,1.63462c-2.13332,0.7896 -4.25279,1.59306 -6.38611,2.38268c-1.13593,0.41558 -2.28569,0.80346 -3.44933,1.13593c-0.7896,0.22165 -1.57921,0.37402 -2.39652,0.47099c-0.45713,0.0554 -0.90043,-0.01385 -1.30215,-0.18008c-0.92814,-0.40173 -1.85627,-0.81731 -2.72899,-1.32986c-0.54026,-0.31861 -1.0251,-0.67878 -1.48224,-1.10822c-0.36016,-0.33247 -0.76189,-0.63723 -1.13593,-0.95584c-0.2355,-0.19394 -0.44329,-0.38787 -0.58181,-0.66493c-0.02771,-0.06926 -0.0554,-0.13853 -0.06926,-0.20779c-0.02771,-0.08311 0.0554,-0.22165 0.13853,-0.22165c0.18286,-0.04571 0.40339,-0.04433 0.69319,-0.04239c0.06123,0.00042 0.12564,0.00083 0.19338,0.00083zM346.02991,190.1741c0.44329,0.02771 0.88657,0.08311 1.32986,0.12468c0,-0.01385 0,-0.01385 0.01385,-0.0554c0.0554,0 0.11082,0.00152 0.16762,0.00305c0.11636,0.00305 0.23411,0.00623 0.34494,-0.00305c0.19394,-0.01385 0.38787,-0.0554 0.58181,-0.06926c0.63723,-0.04156 1.20519,-0.2632 1.74545,-0.58181c0.45713,-0.2632 0.90043,-0.52641 1.34372,-0.80346c0.40173,-0.24936 0.77575,-0.54026 1.13593,-0.83117c0.41558,-0.31861 0.74805,-0.72034 1.0251,-1.16364c0.04156,-0.0554 0.06926,-0.12468 0.09697,-0.19394c0.04156,-0.09697 0,-0.22165 -0.09697,-0.2355c-0.15237,-0.02771 -0.29091,-0.0554 -0.44329,-0.06926c-1.13593,-0.06926 -2.24414,-0.27705 -3.35236,-0.55412c-1.4684,-0.37402 -2.89522,-0.81731 -4.32205,-1.32986c-2.18873,-0.77575 -4.36361,-1.57921 -6.55234,-2.38268c-1.10822,-0.40173 -2.23029,-0.81731 -3.33851,-1.2329c-0.11082,-0.04156 -0.2355,-0.08311 -0.34632,-0.12468c-0.33247,-0.11082 -0.45713,-0.06926 -0.62338,0.20779c-0.04156,0.06926 -0.06926,0.12468 -0.11082,0.19394c-0.56796,0.99739 -1.13593,1.98093 -1.70388,2.96449c-0.0554,0.08311 -0.09697,0.16623 -0.12468,0.2632c-0.01385,0.04156 0,0.09697 0.02771,0.13853c0.04156,0.0554 0.09697,0.11082 0.15237,0.15237c0.62338,0.40173 1.2606,0.77575 1.92553,1.10822c0.85888,0.44329 1.74545,0.80346 2.64587,1.16364c1.81471,0.72034 3.61556,1.4684 5.37486,2.32726c0.55412,0.2632 1.14978,0.47099 1.71774,0.70649c0.12468,0.0554 0.2355,0.08311 0.36016,0.11082c0.33247,0.08311 0.67878,0.13853 1.0251,0.16623zM203.47142,191.06067h0.62338c0.05486,-0.00166 0.10791,-0.00346 0.1593,-0.00513c0.36336,-0.01177 0.64553,-0.02092 0.94892,-0.00872c0.2632,0.01385 0.48484,-0.0554 0.67878,-0.2355c0.30476,-0.29091 0.67878,-0.47099 1.08051,-0.62338c0.18008,-0.06926 0.37402,-0.13853 0.55412,-0.20779c0.58181,-0.22165 1.16364,-0.44329 1.67617,-0.7896c0.08311,-0.0554 0.18008,-0.09697 0.2632,-0.13853c1.49609,-0.76189 2.9922,-1.5238 4.50214,-2.27185c1.17748,-0.58181 2.39652,-1.06665 3.67098,-1.38527l0.20779,-0.08311c0.09697,-0.0554 0.15237,-0.12468 0.15237,-0.2355c0,-0.16623 0,-0.34632 -0.01385,-0.51255c-0.01385,-0.15237 -0.08311,-0.27705 -0.16623,-0.40173c-0.0554,-0.0554 -0.09697,-0.11082 -0.15237,-0.16623c-0.58181,-0.62338 -1.01125,-1.32986 -1.31601,-2.13332c-0.04156,-0.09697 -0.08311,-0.19394 -0.12468,-0.27705c-0.0554,-0.11082 -0.16623,-0.16623 -0.30476,-0.15237c-0.0554,0.01385 -0.11082,0.01385 -0.15237,0.02771c-0.87272,0.19394 -1.73159,0.40173 -2.59045,0.65108c-1.66233,0.4987 -3.2831,1.09436 -4.90387,1.70388c-1.59306,0.60952 -3.18613,1.2329 -4.79305,1.787c-1.0251,0.36016 -2.06406,0.69263 -3.13072,0.91428c-0.92814,0.19394 -1.85627,0.33247 -2.79825,0.15237c-0.09697,-0.01385 -0.19394,0.09697 -0.19394,0.18008c0.01385,0.18008 0.08311,0.34632 0.19394,0.47099c0.18008,0.19394 0.37402,0.40173 0.58181,0.56796c0.51255,0.40173 0.98354,0.84502 1.44069,1.2883c0.44329,0.42944 0.92814,0.81731 1.45454,1.14978c0.74805,0.48484 1.55151,0.74805 2.45194,0.7342zM382.51802,195.25806c0.65108,0.15237 1.30215,0.2632 1.98093,0.2355h0.56796c0.16623,-0.01385 0.34632,-0.0554 0.51255,-0.06926c0.12468,-0.01385 0.24936,-0.02771 0.37402,-0.02771c0.65108,-0.01385 1.2606,-0.18008 1.87013,-0.40173c0.58181,-0.22165 1.14978,-0.48484 1.69003,-0.77575c1.03896,-0.56796 2.03635,-1.20519 2.9922,-1.91168c0.94199,-0.69263 1.85627,-1.39912 2.78441,-2.10561c0.13853,-0.09697 0.27705,-0.20779 0.40173,-0.33247c0.20779,-0.19394 0.33247,-0.42944 0.37402,-0.70649c0.01385,-0.09697 -0.08311,-0.19394 -0.16623,-0.19394c-0.24936,0.01385 -0.47099,0.12468 -0.70649,0.19394c-1.20519,0.34632 -2.42423,0.40173 -3.65712,0.12468c-0.33247,-0.08311 -0.67878,-0.13853 -1.01125,-0.22165c-1.82856,-0.42944 -3.65712,-0.84502 -5.48568,-1.2883c-2.32726,-0.55412 -4.65452,-1.12207 -6.98178,-1.70388c-2.8121,-0.70649 -5.61036,-1.42683 -8.40861,-2.13332c-2.36882,-0.60952 -4.73763,-1.2329 -7.0926,-1.88397c-0.2355,-0.06926 -0.48484,-0.12468 -0.72034,-0.18008c-0.06926,-0.01385 -0.15237,0.01385 -0.20779,0.0554c-0.13853,0.11082 -0.24936,0.2355 -0.37402,0.36016c-0.51255,0.52641 -1.06665,1.0251 -1.67617,1.45454c-0.55412,0.38787 -1.10822,0.76189 -1.66233,1.12207c-0.40173,0.27705 -0.84502,0.51255 -1.2606,0.77575c-0.11082,0.06926 -0.20779,0.12468 -0.30476,0.20779c-0.04156,0.0554 -0.08311,0.12468 -0.09697,0.19394c-0.02078,0.09351 -0.01801,0.18701 -0.01524,0.28052c0,0.03117 0.00139,0.06233 0.00139,0.09351c0,0.11082 0.0554,0.19394 0.15237,0.2355c0.08311,0.0554 0.18008,0.08311 0.27705,0.11082c1.59306,0.52641 3.19998,1.0251 4.79305,1.55151c3.57401,1.17748 7.13416,2.36882 10.69432,3.56015c3.03375,0.99739 6.05364,2.00864 9.07355,3.01989c0.42944,0.13853 0.85888,0.24936 1.2883,0.36016zM306.07863,193.41564v-0.88657c-0.01385,-0.4987 -0.12468,-0.98354 -0.33247,-1.44069c-0.42944,-0.95584 -0.90043,-1.87013 -1.42683,-2.77055c-1.31601,-2.17489 -2.92292,-4.10042 -4.77919,-5.84585c-0.04156,-0.02771 -0.06926,-0.06926 -0.11082,-0.09697c-0.09697,-0.08311 -0.22165,-0.09697 -0.34632,-0.06926c-0.06926,0.01385 -0.13853,0.04156 -0.20779,0.06926c-2.70128,0.87272 -5.41642,1.74545 -8.1177,2.61816c-0.20779,0.06926 -0.41558,0.15237 -0.63723,0.20779c-0.20779,0.06926 -0.33247,0.18008 -0.37402,0.40173c-0.09697,0.55412 -0.20779,1.12207 -0.33247,1.67617c-0.45713,2.10561 -0.92814,4.19738 -1.48224,6.27529c-0.38787,1.50995 -0.80346,3.00604 -1.39912,4.44673c-0.06926,0.18008 -0.06926,0.33247 0.0554,0.48484c0.06926,0.08311 0.12468,0.15237 0.18008,0.2355c1.06665,1.39912 2.13332,2.78441 3.19998,4.19738c1.05281,1.39912 2.07792,2.83981 2.9922,4.3359c0.0554,0.08311 0.11082,0.16623 0.15237,0.24936c0.08311,0.15237 0.22165,0.18008 0.37402,0.16623c0.09697,-0.01385 0.19394,-0.01385 0.29091,-0.04156c0.24936,-0.04156 0.48484,-0.08311 0.7342,-0.12468c0.36016,-0.06926 0.7342,-0.12468 1.09436,-0.20779c1.39912,-0.31861 2.77055,-0.72034 4.11426,-1.24675c0.98354,-0.38787 1.95324,-0.84502 2.89522,-1.34372c0.29091,-0.15237 0.51255,-0.37402 0.65108,-0.69263c1.17748,-2.60431 2.11947,-5.27789 2.57661,-8.10385c0.12468,-0.81731 0.2355,-1.64848 0.2355,-2.49349zM164.84999,196.40784c0.29091,0 0.59567,0.01385 0.88657,0.02771c0.22165,-0.01385 0.44329,-0.01385 0.65108,0c0.83117,0 1.60691,-0.18008 2.36882,-0.51255c0.27705,-0.12468 0.55412,-0.22165 0.83117,-0.31861c2.96449,-1.0251 5.94282,-2.05021 8.90731,-3.06146c4.3359,-1.48224 8.65796,-2.96449 12.98001,-4.44673c0.95584,-0.33247 1.89782,-0.70649 2.85367,-1.05281c0.18008,-0.06926 0.22165,-0.20779 0.09697,-0.33247c-0.15237,-0.15237 -0.30476,-0.31861 -0.48484,-0.45713c-0.30476,-0.24936 -0.62338,-0.48484 -0.94199,-0.72034c-0.83117,-0.58181 -1.62077,-1.21904 -2.3134,-1.96709c-0.16623,-0.18008 -0.34632,-0.34632 -0.52641,-0.51255c-0.24936,-0.22165 -0.55412,-0.33247 -0.88657,-0.31861c-0.24936,0.01385 -0.48484,0.02771 -0.7342,0.08311c-0.62338,0.15237 -1.24675,0.29091 -1.87013,0.45713c-1.16364,0.30476 -2.32726,0.62338 -3.50474,0.92814c-3.92032,1.01125 -7.86835,1.93938 -11.81639,2.83981c-2.21644,0.4987 -4.41902,1.03896 -6.63547,1.56536c-1.87013,0.44329 -3.74024,0.91428 -5.62422,1.31601c-0.90043,0.19394 -1.81471,0.18008 -2.70128,-0.12468c-0.33247,-0.11082 -0.66493,-0.19394 -0.99739,-0.29091c-0.04156,-0.01385 -0.09697,-0.01385 -0.13853,0c-0.02771,0 -0.04156,0.02771 -0.0554,0.04156c-0.01385,0.01385 -0.02771,0.0554 -0.01385,0.06926c0.04156,0.06926 0.06926,0.12468 0.12468,0.18008c1.19133,1.2329 2.41037,2.42423 3.72638,3.51859c0.83117,0.67878 1.67617,1.31601 2.59045,1.87013c0.65108,0.40173 1.32986,0.74805 2.06406,0.99739c0.37402,0.13853 0.76189,0.22165 1.16364,0.22165zM246.58113,208.86144c0.58181,0 1.14978,-0.04156 1.71774,-0.12468c0.51255,-0.08311 1.0251,-0.19394 1.50995,-0.34632c0.11082,-0.04156 0.2355,-0.09697 0.33247,-0.15237c0.04156,-0.01385 0.06926,-0.08311 0.06926,-0.12468c0.01385,-0.09697 0.01385,-0.19394 0.01385,-0.29091c-0.02771,-0.62338 -0.06926,-1.2329 -0.09697,-1.85627c-0.02771,-0.74805 -0.02771,-1.48224 0.02771,-2.23029c0.06926,-0.95584 0.06926,-1.92553 0.19394,-2.88137c0.06926,-0.56796 0.13853,-1.13593 0.2355,-1.69003c0.15237,-0.96969 0.34632,-1.93938 0.63723,-2.89522c0.0554,-0.20779 0.02771,-0.38787 -0.09697,-0.56796c-0.11082,-0.16623 -0.20779,-0.33247 -0.31861,-0.4987c-0.7896,-1.20519 -1.39912,-2.49349 -1.91168,-3.8372c-0.69263,-1.80085 -1.20519,-3.65712 -1.50995,-5.5688c-0.01385,-0.12468 -0.0554,-0.2355 -0.09697,-0.36016c-0.02771,-0.11082 -0.11082,-0.18008 -0.20779,-0.18008c-0.13396,0.00457 -0.26624,0.00457 -0.39758,0.00457c-0.26279,0 -0.52128,0 -0.77991,0.03699c-0.83117,0.11082 -1.64848,0.29091 -2.45194,0.55412c-0.13853,0.04156 -0.27705,0.09697 -0.41558,0.15237c-0.12468,0.0554 -0.19394,0.13853 -0.2355,0.27705c-0.04156,0.16623 -0.09697,0.33247 -0.12468,0.4987c-0.29091,1.48224 -0.56796,2.96449 -0.63723,4.47443c0,0.09697 -0.01385,0.19394 -0.02771,0.29091c-0.02771,0.34632 -0.06926,0.69263 -0.08311,1.03896c-0.01385,1.01125 -0.02771,2.03635 0.01385,3.0476c0.04156,0.85888 0.12468,1.71774 0.2355,2.57661c0.13853,1.01125 0.30476,2.00864 0.51255,2.9922c0.4987,2.27185 1.2329,4.47443 2.21644,6.5939c0.31225,0.64553 0.38816,0.90458 0.5584,1.0071c0.11401,0.06788 0.27027,0.06511 0.56811,0.06096h0.00042c0.1456,-0.00278 0.32485,-0.00554 0.54926,-0.00139zM340.22561,194.62083c-0.74805,0.01385 -1.4684,-0.15237 -2.16103,-0.42944c-1.21904,-0.4987 -2.36882,-1.12207 -3.50474,-1.77316c-1.37141,-0.7896 -2.74284,-1.57921 -4.11426,-2.35497c-0.51255,-0.29091 -1.05281,-0.55412 -1.57921,-0.83117c-0.12468,-0.0554 -0.15237,-0.18008 -0.09697,-0.31861l0.08311,-0.20779c0.2355,-0.44329 0.52641,-0.83117 0.87272,-1.19133c0.29091,-0.29091 0.60952,-0.58181 0.91428,-0.87272c0.2355,-0.22165 0.48484,-0.42944 0.72034,-0.63723c0.15237,-0.13853 0.33247,-0.20779 0.54026,-0.20779c0.27705,-0.01385 0.54026,0.01385 0.80346,0.12468c0.36016,0.16623 0.72034,0.30476 1.08051,0.48484c0.51255,0.24936 1.01125,0.51255 1.50995,0.7896c1.59306,0.85888 3.19998,1.66233 4.87616,2.34111c1.71774,0.70649 3.46319,1.30215 5.25018,1.80085c0.2632,0.06926 0.52641,0.15237 0.77575,0.2355c0.12468,0.04156 0.16623,0.18008 0.06926,0.29091c-0.02771,0.04156 -0.0554,0.08311 -0.09697,0.11082c-0.54026,0.55412 -1.13593,1.0251 -1.787,1.42683c-1.0251,0.62338 -2.14718,0.99739 -3.33851,1.14978c-0.27705,0.0554 -0.55412,0.0554 -0.81731,0.06926zM210.63328,195.06412c-0.06414,0 -0.12979,0.00152 -0.19602,0.00305c-0.13423,0.00305 -0.26999,0.00623 -0.39965,-0.00305c-1.17748,-0.0554 -2.28569,-0.38787 -3.2831,-1.03896c-0.58181,-0.38787 -1.08051,-0.87272 -1.44069,-1.48224c-0.0554,-0.08311 -0.06926,-0.18008 -0.09697,-0.27705c-0.01385,-0.04156 0.02771,-0.09697 0.0554,-0.12468c0.0554,-0.04156 0.12468,-0.06926 0.19394,-0.08311c0.42944,-0.12468 0.85888,-0.24936 1.27445,-0.37402c1.27445,-0.40173 2.50734,-0.91428 3.71253,-1.49609c1.27445,-0.60952 2.53505,-1.24675 3.79565,-1.87013c0.84502,-0.41558 1.67617,-0.83117 2.53505,-1.2329c0.42944,-0.19394 0.85888,-0.37402 1.30215,-0.52641c0.27705,-0.09697 0.56796,-0.18008 0.85888,-0.2355c0.33247,-0.06926 0.63723,0 0.90043,0.22165c0.01385,0.01385 0.04156,0.02771 0.0554,0.04156c0.60952,0.54026 1.16364,1.13593 1.64848,1.80085c0.11082,0.16623 0.22165,0.33247 0.31861,0.4987c0.11082,0.18008 0.08311,0.2632 -0.06926,0.37402c-0.18008,0.12468 -0.36016,0.24936 -0.55412,0.37402c-2.24414,1.39912 -4.48829,2.8121 -6.76013,4.15582c-0.48484,0.29091 -0.99739,0.55412 -1.49609,0.81731c-0.62338,0.31861 -1.30215,0.48484 -2.00864,0.44329c-0.11082,0.01385 -0.2355,0.01385 -0.34632,0.01385zM373.95703,202.48919c-0.77575,0.01385 -1.5238,-0.13853 -2.27185,-0.36016c-0.60952,-0.19394 -1.20519,-0.44329 -1.80085,-0.70649c-1.49609,-0.65108 -2.9922,-1.30215 -4.48829,-1.96709c-2.85367,-1.2606 -5.69348,-2.53505 -8.53329,-3.8095c-2.43808,-1.09436 -4.86231,-2.23029 -7.24499,-3.40777c-0.2632,-0.12468 -0.52641,-0.27705 -0.77575,-0.41558c-0.06926,-0.04156 -0.06926,-0.13853 -0.02771,-0.18008c0.15237,-0.16623 0.34632,-0.29091 0.54026,-0.38787c0.4987,-0.27705 0.99739,-0.55412 1.49609,-0.80346c0.80346,-0.40173 1.55151,-0.87272 2.24414,-1.44069c0.36016,-0.30476 0.74805,-0.56796 1.10822,-0.85888c0.24936,-0.19394 0.54026,-0.2355 0.84502,-0.16623c0.42944,0.09697 0.87272,0.20779 1.2883,0.36016c0.55412,0.19394 1.12207,0.38787 1.69003,0.58181c0.84502,0.29091 1.69003,0.56796 2.53505,0.85888c0.16623,0.0554 0.33247,0.11082 0.48484,0.18008c1.64848,0.7342 3.35236,1.32986 5.0701,1.88397c1.03896,0.33247 2.06406,0.66493 3.10301,1.01125c1.38527,0.45713 2.7567,0.96969 4.08656,1.55151c0.74805,0.33247 1.5238,0.59567 2.29955,0.81731c0.94199,0.27705 1.91168,0.52641 2.83981,0.87272c0.18008,0.06926 0.37402,0.12468 0.55412,0.20779c0.52641,0.22165 1.08051,0.36016 1.63462,0.47099c0.2632,0.0554 0.54026,0.08311 0.80346,0.09697c1.10822,0.06926 2.23029,0.04156 3.33851,0c0.24936,-0.01385 0.4987,-0.01385 0.7342,0c0.02771,0 0.06926,0.0554 0.08311,0.08311c0.01385,0.01385 0,0.0554 -0.01385,0.06926c-0.41558,0.52641 -0.94199,0.94199 -1.53766,1.2606c-1.06665,0.58181 -2.11947,1.16364 -3.18613,1.74545c-0.56796,0.30476 -1.12207,0.62338 -1.69003,0.91428c-0.90043,0.47099 -1.82856,0.87272 -2.79825,1.16364c-0.80346,0.22165 -1.59306,0.38787 -2.41037,0.37402zM177.64992,202.96018c-1.05281,0.0554 -2.03635,-0.16623 -2.9922,-0.52641c-2.27185,-0.85888 -4.44673,-1.92553 -6.48308,-3.24154c-0.55412,-0.36016 -1.09436,-0.76189 -1.60691,-1.20519c-0.18008,-0.16623 -0.37402,-0.31861 -0.51255,-0.52641c-0.01385,-0.01385 -0.01385,-0.0554 0,-0.06926c0.02771,-0.04156 0.0554,-0.08311 0.09697,-0.08311c0.56796,-0.02771 1.13593,0 1.70388,0.06926c0.7896,0.08311 1.57921,0.11082 2.36882,0.04156c0.94199,-0.09697 1.85627,-0.30476 2.74284,-0.62338c0.85888,-0.30476 1.71774,-0.62338 2.57661,-0.92814c4.00345,-1.42683 7.97917,-2.92292 11.98262,-4.37747c1.787,-0.65108 3.57401,-1.31601 5.36101,-1.96709c0.74805,-0.27705 1.49609,-0.52641 2.258,-0.7342c0.42944,-0.12468 0.85888,-0.2355 1.30215,-0.27705c0.09697,-0.01385 0.19394,-0.01385 0.29091,-0.02771c0.41558,-0.01385 0.77575,0.12468 1.08051,0.40173c0.12468,0.11082 0.24936,0.2355 0.37402,0.36016c0.80346,0.85888 1.74545,1.53766 2.78441,2.07792c0.37402,0.19394 0.7342,0.41558 1.06665,0.66493c0.08311,0.0554 0.15237,0.13853 0.20779,0.20779c0.01385,0.02771 0,0.11082 -0.02771,0.12468c-0.09697,0.08311 -0.19394,0.16623 -0.30476,0.20779c-0.54026,0.24936 -1.08051,0.4987 -1.62077,0.7342c-0.67878,0.29091 -1.35757,0.60952 -2.00864,0.95584c-0.27705,0.15237 -0.56796,0.29091 -0.85888,0.42944c-0.7342,0.36016 -1.4684,0.72034 -2.20258,1.06665c-2.13332,1.03896 -4.25279,2.10561 -6.39996,3.13072c-1.85627,0.88657 -3.71253,1.74545 -5.61036,2.53505c-0.98354,0.40173 -1.98093,0.7896 -2.97834,1.13593c-0.84502,0.31861 -1.70388,0.48484 -2.59045,0.44329zM334.19968,199.19223c-0.52641,0.01316 -0.9032,-0.09891 -1.2606,-0.20517l-0.0554,-0.01648c-0.40173,-0.13853 -0.77575,-0.33247 -1.13593,-0.55412c-0.65108,-0.40173 -1.27445,-0.84502 -1.87013,-1.32986c-0.98354,-0.81731 -1.96709,-1.66233 -2.95063,-2.47965c-0.58181,-0.4987 -1.17748,-0.98354 -1.7593,-1.48224c-0.16623,-0.13853 -0.33247,-0.29091 -0.48484,-0.45713c-0.13853,-0.15237 -0.16623,-0.36016 -0.08311,-0.55412c0.0554,-0.13853 0.12468,-0.27705 0.22165,-0.37402c0.16623,-0.18008 0.34632,-0.36016 0.52641,-0.51255c0.27705,-0.2355 0.58181,-0.45713 0.87272,-0.69263c0.33247,-0.2632 0.65108,-0.52641 1.01125,-0.74805c0.36016,0.0554 0.60952,0.31861 0.91428,0.47099c0.08311,0.04156 0.16623,0.11082 0.24936,0.15237c1.92553,1.14978 3.85106,2.3134 5.79044,3.46319c0.56796,0.34632 1.16364,0.66493 1.74545,0.98354c0.84502,0.47099 1.74545,0.81731 2.70128,0.98354c0.04156,0.01385 0.09697,0.02771 0.13853,0.04156c0.08311,0.02771 0.15237,0.15237 0.11082,0.2355c-0.22165,0.59567 -0.60952,1.08051 -1.12207,1.44069c-0.62338,0.44329 -1.27445,0.84502 -1.96709,1.17748c-0.37402,0.18008 -0.77575,0.31861 -1.19133,0.40173c-0.16623,0.04156 -0.36016,0.0554 -0.40173,0.0554zM216.97784,199.2615c-0.24936,-0.01385 -0.4987,-0.02771 -0.7342,-0.0554c-0.66493,-0.0554 -1.24675,-0.31861 -1.74545,-0.74805c-0.58181,-0.4987 -1.06665,-1.09436 -1.4684,-1.7593c-0.0554,-0.08311 -0.02771,-0.22165 0.04156,-0.2632c0.08311,-0.0554 0.16623,-0.11082 0.24936,-0.15237c0.44329,-0.2632 0.90043,-0.51255 1.34372,-0.77575c2.24414,-1.30215 4.44673,-2.68744 6.62161,-4.10042c0.37402,-0.24936 0.74805,-0.47099 1.13593,-0.70649c0.19394,-0.11082 0.38787,-0.20779 0.59567,-0.30476c0.36016,-0.16623 0.72034,-0.13853 1.06665,0.0554c0.15237,0.08311 0.29091,0.18008 0.42944,0.29091c0.60952,0.42944 1.21904,0.84502 1.87013,1.20519c0.06926,0.04156 0.12468,0.08311 0.18008,0.12468c0.08311,0.0554 0.11082,0.2355 0.0554,0.33247c-0.04156,0.06926 -0.06926,0.12468 -0.11082,0.19394c-0.40173,0.56796 -0.88657,1.05281 -1.42683,1.49609c-0.60952,0.4987 -1.24675,0.98354 -1.87013,1.45454c-0.66493,0.51255 -1.32986,1.03896 -1.93938,1.62077c-0.2632,0.24936 -0.55412,0.4987 -0.84502,0.7342c-0.48484,0.40173 -1.01125,0.72034 -1.57921,0.96969c-0.59567,0.24936 -1.21904,0.40173 -1.87013,0.38787zM362.95795,207.6424c-1.39912,-0.0554 -2.65973,-0.29091 -3.85106,-0.7896c-0.63723,-0.2632 -1.27445,-0.55412 -1.87013,-0.90043c-1.37141,-0.80346 -2.72899,-1.59306 -4.10042,-2.39652c-2.21644,-1.30215 -4.44673,-2.59045 -6.66316,-3.89262c-1.73159,-1.01125 -3.44933,-2.03635 -5.13936,-3.10301c-0.2355,-0.13853 -0.45713,-0.30476 -0.67878,-0.45713c-0.08311,-0.0554 -0.06926,-0.18008 0.04156,-0.2355c0.15237,-0.06926 0.31861,-0.13853 0.48484,-0.19394l1.12207,-0.37402c1.49609,-0.47099 2.88137,-1.17748 4.14197,-2.10561c0.30476,-0.22178 0.41973,-0.32222 0.53887,-0.329c0.08728,-0.00498 0.17732,0.03962 0.34494,0.12302c0.06233,0.03117 0.13576,0.0676 0.22441,0.10903c2.56276,1.21904 5.13936,2.43808 7.70212,3.65712c2.96449,1.41298 5.94282,2.82596 8.90731,4.23893c1.2883,0.60952 2.59045,1.21904 3.92032,1.7593c0.45713,0.18008 0.91428,0.37402 1.38527,0.51255c0.4987,0.13853 1.01125,0.2355 1.5238,0.29091c0.63723,0.0554 1.27445,0.13853 1.92553,0.16623c0.06926,0 0.15237,0.01385 0.22165,0.04156c0.06926,0.02771 0.12468,0.08311 0.16623,0.12468c0.02771,0.02771 -0.06926,0.13853 -0.12468,0.16623c-0.02771,0.01385 -0.04156,0.02771 -0.06926,0.02771c-1.03896,0.27705 -1.98093,0.77575 -2.89522,1.32986l-0.70649,0.41558c-0.42944,0.2355 -0.88657,0.44329 -1.35757,0.59567c-0.95584,0.31861 -1.92553,0.62338 -2.90907,0.90043c-0.76189,0.20779 -1.57921,0.2632 -2.28569,0.31861zM323.42225,193.20785c-0.22165,-0.16623 -0.48484,-0.2632 -0.72034,-0.24936c-0.2355,0 -0.42944,0.01385 -0.67878,0.09697c-0.27705,0.09697 -0.56796,0.19394 -0.83117,0.31861c-0.67878,0.30476 -1.31601,0.69263 -1.92553,1.10822c-0.16623,0.11082 -0.15237,0.20779 -0.01385,0.36016c0.4987,0.55412 0.99739,1.09436 1.49609,1.64848c0.96969,1.08051 1.95324,2.17489 2.90907,3.26925c1.06665,1.20519 2.09176,2.43808 3.18613,3.61556c0.4987,0.52641 1.01125,1.0251 1.50995,1.53766c0.06926,0.06926 0.18008,0.09697 0.27705,0.0554c0.02771,0 0.04156,-0.01385 0.06926,-0.02771c0.7896,-0.41558 1.56536,-0.84502 2.3134,-1.32986c0.47099,-0.31861 0.92814,-0.65108 1.37141,-1.01125c0.33247,-0.24936 0.44329,-0.58181 0.37402,-0.98354c-0.01385,-0.11082 -0.06926,-0.2355 -0.11082,-0.34632c-0.11082,-0.27705 -0.29091,-0.52641 -0.51255,-0.72034c-0.2355,-0.22165 -0.48484,-0.42944 -0.7342,-0.62338c-0.44329,-0.34632 -0.90043,-0.67878 -1.34372,-1.03896c-0.55412,-0.45713 -1.09436,-0.92814 -1.62077,-1.41298c-0.95584,-0.85888 -1.89782,-1.71774 -2.85367,-2.59045c-0.67878,-0.60952 -1.41298,-1.13593 -2.16103,-1.67617zM231.46779,194.75936c0.01385,-0.01385 0.01385,-0.04156 0.01385,-0.06926c-0.01385,-0.01385 -0.02771,-0.04156 -0.02771,-0.09697c-0.04156,-0.02771 -0.06926,-0.06926 -0.11082,-0.09697c-0.83117,-0.55412 -1.77316,-0.88657 -2.68744,-1.2329c-0.30476,-0.11082 -0.62338,-0.0554 -0.91428,0.13853c-0.20779,0.13853 -0.41558,0.27705 -0.60952,0.42944c-0.59567,0.51255 -1.19133,1.0251 -1.787,1.55151c-1.2329,1.10822 -2.45194,2.21644 -3.68483,3.32465c-0.59567,0.52641 -1.19133,1.03896 -1.787,1.56536c-0.36016,0.31861 -0.72034,0.62338 -1.06665,0.92814c-0.13853,0.12468 -0.29091,0.2632 -0.42944,0.40173c-0.04156,0.04156 -0.0554,0.15237 -0.01385,0.20779c0.04156,0.06926 0.08311,0.12468 0.13853,0.18008c0.77575,0.83117 1.62077,1.60691 2.5489,2.258c0.27705,0.20779 0.56796,0.40173 0.88657,0.54026c0.45713,0.19394 0.70649,0.29091 1.17748,-0.20779c0.63723,-0.69263 1.2606,-1.39912 1.85627,-2.11947c1.20519,-1.44069 2.39652,-2.89522 3.61556,-4.32205c0.87272,-1.03896 1.77316,-2.06406 2.65973,-3.08917c0.08311,-0.09697 0.15237,-0.19394 0.22165,-0.29091zM188.03947,208.43201c-0.83117,0.04156 -1.62077,-0.11082 -2.41037,-0.34632c-0.7342,-0.2355 -1.45454,-0.45713 -2.18873,-0.70649c-0.66493,-0.22165 -1.2883,-0.4987 -1.89782,-0.84502c-0.63723,-0.37402 -1.2883,-0.7342 -1.92553,-1.10822c-0.51255,-0.29091 -1.01125,-0.60952 -1.4684,-0.99739c-0.11082,-0.09697 -0.22165,-0.19394 -0.33247,-0.30476c-0.04156,-0.04156 -0.0554,-0.15237 -0.04156,-0.20779c0.04156,-0.06926 0.16623,-0.13853 0.24936,-0.12468c0.12468,0.02771 0.2355,0.06926 0.36016,0.09697c0.2632,0.08311 0.51255,0.16623 0.77575,0.2355c1.16364,0.29091 2.29955,0.20779 3.39393,-0.30476c1.42683,-0.67878 2.86752,-1.32986 4.29435,-2.00864c3.89262,-1.84242 7.74368,-3.74024 11.6086,-5.63806c1.80085,-0.88657 3.60172,-1.7593 5.38872,-2.64587c0.06926,-0.02771 0.13853,-0.06926 0.19394,-0.09697l0.0169,-0.00832c0.49607,-0.24131 0.51448,-0.25032 0.9528,0.16069c0.95584,0.88657 2.06406,1.5238 3.29696,1.95324c0.27705,0.09697 0.56796,0.19394 0.84502,0.27705c0.30476,0.09697 0.58181,0.2632 0.83117,0.48484c0.19394,0.18008 0.20779,0.33247 0.01385,0.48484c-0.44329,0.36016 -0.90043,0.69263 -1.39912,0.96969c-3.46319,2.00864 -6.8294,4.19738 -10.20946,6.33071c-1.38527,0.87272 -2.77055,1.73159 -4.14197,2.60431c-0.77575,0.48484 -1.62077,0.83117 -2.49349,1.10822c-0.47099,0.15237 -0.95584,0.2632 -1.42683,0.37402c-0.76189,0.18008 -1.5238,0.27705 -2.28569,0.2632zM250.70924,204.96882c-0.04156,0.94199 0.02771,1.88397 0.09697,2.8121c0.02771,0.36016 0.15237,0.67878 0.37402,0.95584l0.37402,0.45713c0.88657,1.06665 1.81471,2.09176 2.79825,3.07531c0.94199,0.94199 1.93938,1.84242 2.97834,2.68744c0.66493,0.54026 1.35757,1.08051 2.09176,1.53766c0.37402,0.2355 0.77575,0.44329 1.14978,0.67878c0.2632,0.16623 0.55412,0.19394 0.85888,0.13853c0.19394,-0.02771 0.38787,-0.06926 0.58181,-0.09697c1.20519,-0.13853 2.38268,-0.40173 3.56015,-0.70649c1.93938,-0.51255 3.82335,-1.17748 5.66577,-1.96709c0.11082,-0.04156 0.22165,-0.11082 0.33247,-0.15237c0.12468,-0.0554 0.19394,-0.15237 0.19394,-0.29091c0.04156,-0.84502 0.16623,-1.67617 0.16623,-2.5212c0,-0.16623 0,-0.34632 0.02771,-0.51255c0.13853,-0.92814 0.09697,-1.87013 0.2355,-2.8121c0.09697,-0.70649 0.11082,-1.42683 0.20779,-2.13332c0.11082,-0.88657 0.19394,-1.77316 0.37402,-2.64587c0.0554,-0.2355 0.08311,-0.48484 0.11082,-0.7342c0.01385,-0.09697 -0.02771,-0.19394 -0.11082,-0.2632c-0.19394,-0.15237 -0.37402,-0.31861 -0.56796,-0.47099c-1.39912,-1.10822 -2.74284,-2.27185 -4.045,-3.49089c-1.56536,-1.4684 -3.08917,-3.00604 -4.55755,-4.5714c-0.15237,-0.16623 -0.30476,-0.31861 -0.45713,-0.48484c-0.12468,-0.13853 -0.29091,-0.18008 -0.47099,-0.13853c-0.29091,0.06926 -0.56796,0.16623 -0.85888,0.2355c-3.10301,0.80346 -6.21988,1.60691 -9.32289,2.42423c-0.16623,0.04156 -0.33247,0.09697 -0.4987,0.15237c-0.09697,0.04156 -0.15237,0.11082 -0.19394,0.20779c-0.01385,0.04156 -0.04156,0.08311 -0.0554,0.13853c-0.24936,1.0251 -0.48484,2.06406 -0.63723,3.11686c-0.06926,0.48484 -0.12468,0.98354 -0.18008,1.4684c-0.11082,0.85888 -0.15237,1.71774 -0.20779,2.59045c-0.02078,0.31169 -0.01814,0.64678 -0.01565,0.98188c0.00097,0.11165 0.0018,0.22331 0.0018,0.33413zM323.24217,208.43201c-0.37402,0.01385 -0.56796,-0.08311 -0.70649,-0.27705c-0.09697,-0.13853 -0.19394,-0.29091 -0.27705,-0.42944c-0.7342,-1.2329 -1.48224,-2.46579 -2.21644,-3.68483c-0.15237,-0.24936 -0.30476,-0.51255 -0.44329,-0.77575c-0.47099,-0.83117 -0.72034,-1.73159 -0.74805,-2.68744c-0.04156,-0.96969 -0.02771,-1.92553 0,-2.89522c0.01385,-0.40173 0.02771,-0.7896 0.02771,-1.19133c0,-0.09697 0.04156,-0.16623 0.09697,-0.18008c0.08311,-0.01385 0.13853,0.02771 0.19394,0.08311c0.54026,0.47099 1.0251,0.99739 1.45454,1.57921c0.48484,0.66493 1.0251,1.27445 1.60691,1.85627c0.58181,0.58181 1.12207,1.19133 1.59306,1.85627c0.34632,0.48484 0.7342,0.92814 1.16364,1.34372c0.41558,0.41558 0.83117,0.84502 1.24675,1.27445c0.41558,0.44329 0.72034,0.94199 0.91428,1.50995c0.02771,0.09697 0.0554,0.19394 0.0554,0.29091c0,0.06926 -0.04156,0.13853 -0.06926,0.20779c-0.02771,0.04156 -0.06926,0.06926 -0.11082,0.09697c-0.74805,0.56796 -1.5238,1.10822 -2.36882,1.53766c-0.33247,0.16623 -0.66493,0.31861 -1.0251,0.42944c-0.18008,0.02771 -0.34632,0.04156 -0.38787,0.0554zM228.57257,208.57054c-0.09697,-0.01385 -0.20779,-0.01385 -0.30476,-0.02771c-0.4987,-0.12468 -0.99739,-0.29091 -1.45454,-0.55412c-0.77575,-0.44329 -1.53766,-0.88657 -2.3134,-1.32986c-0.04156,-0.02771 -0.09697,-0.0554 -0.11082,-0.09697c-0.02771,-0.0554 -0.06926,-0.13853 -0.0554,-0.20779c0.11082,-0.54026 0.37402,-1.0251 0.69263,-1.4684c0.33247,-0.45713 0.69263,-0.90043 1.06665,-1.32986c0.56796,-0.65108 1.10822,-1.32986 1.64848,-2.00864c0.29091,-0.37402 0.59567,-0.72034 0.90043,-1.08051c0.60952,-0.72034 1.20519,-1.44069 1.82856,-2.14718c0.27705,-0.31861 0.56796,-0.62338 0.85888,-0.91428c0.31861,-0.31861 0.70649,-0.54026 1.12207,-0.69263c0.04156,-0.01385 0.09697,-0.01385 0.15237,-0.02771c0.08311,-0.01385 0.20779,0.09697 0.19394,0.16623c-0.15237,0.84502 -0.22165,1.71774 -0.33247,2.57661c-0.01385,0.15237 -0.02771,0.29091 -0.04156,0.44329c-0.02771,0.38787 -0.04156,0.7896 -0.11082,1.17748c-0.04156,0.22165 -0.04156,0.44329 -0.0554,0.66493c0,0.38787 -0.11082,0.72034 -0.29091,1.05281c-0.41558,0.76189 -0.81731,1.5238 -1.24675,2.27185c-0.56796,1.01125 -1.14978,2.0225 -1.73159,3.01989c-0.06926,0.12468 -0.15237,0.2632 -0.2355,0.37402c-0.04156,0.08311 -0.12468,0.09697 -0.18008,0.13853zM339.54683,197.34982c-0.12468,-0.08311 -0.2355,-0.18008 -0.42944,-0.18008c-0.08311,0.08311 -0.20779,0.18008 -0.30476,0.34632c-0.30476,0.31861 -0.59567,0.65108 -0.90043,0.98354c-0.51255,0.55412 -1.10822,0.98354 -1.81471,1.24675c-0.34632,0.12468 -0.67878,0.27705 -1.0251,0.41558c-0.73835,0.29299 -0.72866,0.3049 -0.31308,0.76772c0.0374,0.04058 0.07619,0.08464 0.11914,0.13271c0.36016,0.40173 0.74805,0.7896 1.16364,1.13593c1.16364,0.95584 2.32726,1.91168 3.47704,2.89522c0.70649,0.59567 1.41298,1.14978 2.16103,1.69003c0.74805,0.52641 1.44069,1.12207 2.10561,1.7593c0.20779,0.19394 0.42944,0.40173 0.65108,0.59567c0.27705,0.2355 0.59567,0.42944 0.94199,0.58181c0.63723,0.2632 1.2883,0.45713 1.98093,0.56796c0.60952,0.09697 1.17748,0.01385 1.7593,-0.12468c0.45713,-0.11082 0.90043,-0.2632 1.35757,-0.38787c1.2329,-0.34632 2.36882,-0.88657 3.36622,-1.67617c0.55412,-0.44329 1.12207,-0.90043 1.59306,-1.44069c0.04156,-0.0554 0.01385,-0.15237 -0.0554,-0.18008c-0.06926,-0.02771 -0.13853,-0.06926 -0.20779,-0.08311c-1.01125,-0.20779 -1.92553,-0.62338 -2.79825,-1.14978c-0.59567,-0.36016 -1.19133,-0.72034 -1.77316,-1.08051c-2.0225,-1.2606 -4.01729,-2.53505 -6.03979,-3.7818c-1.66233,-1.0251 -3.33851,-2.0225 -5.0147,-3.03375zM196.3234,206.39565c-0.08311,0.02771 -0.16623,0.09697 -0.27705,0.15237c0.08311,0.09697 0.13853,0.18008 0.18008,0.2355c0.31861,0.2632 0.63723,0.54026 0.96969,0.80346c0.65108,0.54026 1.32986,1.0251 2.05021,1.4684c0.7342,0.44329 1.50995,0.83117 2.35497,1.05281c0.77575,0.20779 1.55151,0.31861 2.34111,0.12468c0.2355,-0.0554 0.47099,-0.11082 0.72034,-0.15237c0.88657,-0.12468 1.64848,-0.52641 2.36882,-1.01125c0.19394,-0.12468 0.36016,-0.2632 0.54026,-0.40173c0.90043,-0.72034 1.84242,-1.41298 2.64587,-2.258c0.09697,-0.08311 0.18008,-0.16623 0.27705,-0.24936c0.51255,-0.42944 1.01125,-0.87272 1.5238,-1.30215c0.63723,-0.54026 1.30215,-1.06665 1.89782,-1.66233c0.45713,-0.44329 0.94199,-0.85888 1.4684,-1.2329c0.36016,-0.2632 0.67878,-0.56796 0.98354,-0.90043c0.09697,-0.11082 0.18008,-0.2355 0.2632,-0.36016c0.12468,-0.19394 0.06926,-0.34632 -0.13853,-0.38787c-0.09697,-0.01385 -0.19394,-0.04156 -0.29091,-0.0554c-1.41298,-0.2632 -2.56276,-0.96969 -3.42162,-2.14718c-0.09697,-0.13853 -0.19394,-0.29091 -0.29091,-0.42944c-0.06926,-0.09697 -0.20779,-0.13853 -0.33247,-0.09697l-0.41558,0.16623c-0.7896,0.36016 -1.56536,0.7342 -2.3134,1.17748c-0.85888,0.51255 -1.73159,1.03896 -2.59045,1.57921c-1.55151,0.96969 -3.08917,1.95324 -4.64066,2.92292c-0.7896,0.4987 -1.59306,0.99739 -2.42423,1.44069c-1.10822,0.59567 -2.23029,1.17748 -3.44933,1.5238zM340.55808,216.0233c-0.74805,0.04156 -1.42683,-0.20779 -2.06406,-0.55412c-0.37402,-0.20779 -0.72034,-0.44329 -1.03896,-0.70649c-0.69263,-0.56796 -1.34372,-1.17748 -1.93938,-1.82856c-1.32986,-1.4684 -2.64587,-2.93678 -3.97574,-4.41902c-0.62338,-0.70649 -1.30215,-1.35757 -1.96709,-2.0225c-0.11082,-0.09697 -0.20779,-0.20779 -0.30476,-0.31861c-0.0554,-0.0554 -0.04156,-0.20779 0.02771,-0.2632c0.09697,-0.08311 0.19394,-0.15237 0.29091,-0.2355c0.74805,-0.56796 1.50995,-1.12207 2.258,-1.69003c0.59567,-0.44329 1.17748,-0.91428 1.70388,-1.42683c0.06926,-0.06926 0.15237,-0.12468 0.2355,-0.18008c0.04156,-0.02771 0.16623,-0.04156 0.20779,-0.01385c0.08311,0.0554 0.16623,0.11082 0.2355,0.16623c0.55412,0.48484 1.12207,0.98354 1.66233,1.48224c0.80346,0.7342 1.62077,1.45454 2.50734,2.07792c0.38787,0.27705 0.7342,0.58181 1.06665,0.92814c1.2329,1.32986 2.64587,2.45194 4.10042,3.53244c0.34632,0.24936 0.72034,0.44329 1.12207,0.55412c0.45713,0.12468 0.90043,0.24936 1.37141,0.30476c0.41558,0.0554 0.83117,0.12468 1.24675,0.16623c0.22165,0.01385 0.44329,0.08311 0.65108,0.12468c0.06926,0.01385 0.08311,0.11082 0.02771,0.16623c-0.19394,0.19394 -0.38787,0.38787 -0.59567,0.55412c-1.45454,1.24675 -3.06146,2.27185 -4.79305,3.06146c-0.24936,0.11082 -0.4987,0.22165 -0.74805,0.31861c-0.41558,0.15237 -0.84502,0.24936 -1.2883,0.22165zM210.31466,216.43889c-0.54026,0.01385 -1.06665,-0.12468 -1.56536,-0.36016c-0.18008,-0.08311 -0.34632,-0.18008 -0.52641,-0.27705c-1.17748,-0.67878 -2.36882,-1.34372 -3.5463,-2.0225c-0.70649,-0.40173 -1.37141,-0.88657 -2.0225,-1.38527c-0.04156,-0.04156 -0.06926,-0.12468 -0.08311,-0.19394c0,-0.06926 0.13853,-0.18008 0.20779,-0.18008c0.02258,0 0.04668,-0.00139 0.07121,-0.00278c0.05085,-0.00278 0.10376,-0.00693 0.15044,0.00278c0.09697,0.01385 0.19394,0.02771 0.29091,0.0554c0.7342,0.11082 1.48224,0.13853 2.21644,0.08311c0.2355,-0.01385 0.42944,-0.09697 0.62338,-0.20779c0.15237,-0.08311 0.29091,-0.19394 0.42944,-0.29091c0.74805,-0.52641 1.48224,-1.08051 2.17489,-1.67617c0.90043,-0.77575 1.80085,-1.55151 2.67358,-2.34111c1.57921,-1.42683 3.14457,-2.86752 4.72378,-4.29435c0.16623,-0.15237 0.33247,-0.29091 0.51255,-0.42944c0.29091,-0.22165 0.76189,-0.20779 1.05281,-0.01385c0.30476,0.20779 0.58181,0.45713 0.85888,0.72034c0.27705,0.24936 0.54026,0.51255 0.83117,0.74805c0.4987,0.40173 1.05281,0.74805 1.62077,1.03896c0.13853,0.06926 0.2632,0.12468 0.40173,0.19394c0.09697,0.0554 0.15237,0.19394 0.12468,0.31861c-0.02771,0.09697 -0.0554,0.19394 -0.08311,0.27705c-0.16623,0.36016 -0.38787,0.69263 -0.66493,0.98354c-0.24936,0.2632 -0.51255,0.54026 -0.77575,0.80346c-0.27705,0.27705 -0.52641,0.58181 -0.7342,0.92814c-0.2632,0.45713 -0.59567,0.84502 -0.96969,1.21904c-0.70649,0.69263 -1.39912,1.39912 -2.10561,2.09176c-0.51255,0.4987 -0.98354,1.03896 -1.39912,1.63462c-0.13853,0.20779 -0.29091,0.40173 -0.44329,0.59567c-0.70649,0.83117 -1.55151,1.44069 -2.60431,1.77316c-0.48484,0.13853 -0.91428,0.20779 -1.44069,0.20779zM232.04961,204.92727c0.0554,0.04156 0.12468,0.08311 0.15237,0.13853c0.27705,0.47099 0.45713,0.96969 0.52641,1.5238c0.09697,0.7342 0.09697,1.4684 0.06926,2.21644c-0.01385,0.44329 -0.06926,0.88657 -0.08311,1.32986c0,0.09697 -0.12468,0.19394 -0.20779,0.16623c-0.76189,-0.29091 -1.5238,-0.58181 -2.27185,-0.87272c-0.04156,-0.01385 -0.08311,-0.04156 -0.12468,-0.08311c-0.02771,-0.02771 -0.06926,-0.08311 -0.06926,-0.12468c0,-0.09697 0,-0.19394 0.01385,-0.29091c0.34632,-1.32986 0.88657,-2.5489 1.64848,-3.68483c0.11082,-0.13853 0.19394,-0.2632 0.34632,-0.31861zM319.07249,205.06579c0.02771,0.01385 0.04156,0.01385 0.06926,0.04156c0.0554,0.0554 0.11082,0.09697 0.15237,0.15237c0.74805,0.95584 1.30215,2.0225 1.70388,3.17228c0.06926,0.19394 0.01385,0.33247 -0.09697,0.48484c-0.06926,0.09697 -0.16623,0.18008 -0.2632,0.2632c-0.09697,0.08311 -0.19394,0.13853 -0.30476,0.20779c-0.38787,0.20779 -0.80346,0.37402 -1.21904,0.52641c-0.08311,0.02771 -0.22165,-0.04156 -0.2355,-0.12468c-0.04156,-0.47099 -0.11082,-0.92814 -0.12468,-1.39912c-0.02771,-0.66493 -0.04156,-1.32986 0.04156,-1.99479c0.04156,-0.34632 0.0554,-0.69263 0.09697,-1.0251c0.01385,-0.09697 0.04156,-0.19394 0.12468,-0.2632c0.01385,-0.02771 0.02771,-0.04156 0.0554,-0.04156zM287.16964,223.86395c0.77575,0.02771 2.13332,-0.11082 3.08917,-0.29091c0.60952,-0.11082 1.19133,-0.31861 1.73159,-0.63723c1.95324,-1.13593 3.7818,-2.43808 5.47183,-3.93417c2.36882,-2.09176 4.40518,-4.47443 6.10906,-7.13416c0.15237,-0.2355 0.27705,-0.47099 0.40173,-0.70649c0.09697,-0.19394 0.15237,-0.41558 0.19394,-0.63723c0.12468,-0.7342 0.12468,-1.4684 0.01385,-2.21644c-0.16623,-1.06665 -0.51255,-2.06406 -0.94199,-3.03375c-0.01385,-0.02771 -0.02771,-0.04156 -0.04156,-0.0554c-0.02771,-0.04156 -0.13853,-0.08311 -0.19394,-0.0554c-0.19394,0.09697 -0.40173,0.19394 -0.59567,0.29091c-2.61816,1.35757 -5.36101,2.258 -8.28393,2.68744c-0.24936,0.04156 -0.48484,0.08311 -0.7342,0.12468c-0.09697,0.01385 -0.18008,0.08311 -0.2355,0.16623c-0.04156,0.0554 -0.08311,0.12468 -0.12468,0.18008c-1.20519,2.0225 -2.63202,3.87877 -4.19738,5.63806c-1.20519,1.34372 -2.47965,2.61816 -3.86491,3.7818c-0.30476,0.2632 -0.33247,0.33247 -0.27705,0.70649c0.01385,0.06926 0.01385,0.15237 0.04156,0.22165c0.15237,0.72034 0.29091,1.45454 0.44329,2.17489c0.15237,0.74805 0.30476,1.49609 0.45713,2.258c0.01385,0.06926 0.04156,0.15237 0.06926,0.20779c0.04156,0.0554 0.09697,0.11082 0.16623,0.13853c0.08311,0.04156 0.19394,0.0554 0.29091,0.0554c0.31861,0.04156 0.66493,0.0554 1.01125,0.06926zM323.53307,210.01123c0.02771,-0.16623 0.11082,-0.24936 0.20779,-0.33247c0.47099,-0.36016 0.94199,-0.7342 1.42683,-1.05281c0.92814,-0.60952 1.88397,-1.17748 2.83981,-1.7593c0.0554,-0.04156 0.13853,-0.06926 0.20779,-0.09697c0.08311,-0.02771 0.15237,0 0.20779,0.04156c0.11082,0.09697 0.22165,0.20779 0.31861,0.31861c1.17748,1.30215 2.32726,2.63202 3.46319,3.96188c0.90043,1.05281 1.81471,2.09176 2.72899,3.13072c0.55412,0.63723 1.19133,1.17748 1.85627,1.70388c0.63723,0.51255 1.34372,0.91428 2.10561,1.2329c0.13853,0.0554 0.27705,0.11082 0.37402,0.22165c0.06926,0.06926 0.06926,0.27705 -0.01385,0.34632c-0.08311,0.0554 -0.15237,0.12468 -0.24936,0.16623c-0.92814,0.45713 -1.85627,0.91428 -2.79825,1.37141c-0.58181,0.27705 -1.19133,0.48484 -1.81471,0.63723c-0.41558,0.11082 -0.83117,0.15237 -1.24675,0.18008c-0.47099,0.02771 -0.94199,-0.0554 -1.38527,-0.16623c-1.05281,-0.2632 -1.95324,-0.80346 -2.78441,-1.48224c-0.24936,-0.20779 -0.44329,-0.45713 -0.63723,-0.72034c-0.38787,-0.51255 -0.72034,-1.06665 -1.01125,-1.63462c-0.51255,-0.95584 -1.06665,-1.89782 -1.64848,-2.8121c-0.09697,-0.13853 -0.18008,-0.29091 -0.27705,-0.44329c-0.42944,-0.74805 -0.90043,-1.4684 -1.39912,-2.17489c-0.18008,-0.20779 -0.33247,-0.42944 -0.47099,-0.63723zM217.69818,220.28994c-0.09697,-0.01385 -0.19394,-0.01385 -0.29091,-0.02771c-1.14978,-0.2632 -2.3134,-0.52641 -3.42162,-0.96969c-0.7896,-0.30476 -1.50995,-0.72034 -2.16103,-1.2883c-0.16623,-0.15237 -0.33247,-0.29091 -0.42944,-0.4987c-0.01385,-0.02771 -0.01385,-0.0554 -0.01385,-0.06926c0.02771,-0.02771 0.06926,-0.06926 0.11082,-0.06926c0.12468,0 0.24936,0.01385 0.36016,0.04156c0.36016,0.08311 0.7342,0.08311 1.10822,0.08311c0.56796,0 1.06665,-0.20779 1.4684,-0.60952c0.91428,-0.94199 1.82856,-1.88397 2.71513,-2.85367c0.84502,-0.92814 1.66233,-1.89782 2.47965,-2.85367c1.05281,-1.24675 2.09176,-2.50734 3.07531,-3.8095c0.06926,-0.09697 0.15237,-0.20779 0.2355,-0.27705c0.04156,-0.04156 0.13853,-0.06926 0.20779,-0.0554c0.09697,0.01385 0.19394,0.0554 0.27705,0.11082c0.55412,0.29091 1.09436,0.56796 1.60691,0.91428c0.7342,0.4987 1.48224,0.98354 2.29955,1.34372c0.04156,0.01385 0.08311,0.0554 0.12468,0.08311c0.02771,0.04156 0.0554,0.08311 0.06926,0.12468c0.01385,0.18008 -0.01385,0.34632 -0.06926,0.51255c-0.20779,0.55412 -0.42944,1.10822 -0.74805,1.60691c-0.34632,0.54026 -0.69263,1.08051 -1.05281,1.62077c-0.60952,0.90043 -1.17748,1.82856 -1.66233,2.8121c-0.16623,0.33247 -0.34632,0.65108 -0.54026,0.96969c-0.34632,0.58181 -0.80346,1.06665 -1.38527,1.42683c-0.41558,0.2632 -0.84502,0.52641 -1.27445,0.76189c-0.87272,0.48484 -1.81471,0.7896 -2.79825,0.94199c-0.08311,0.01385 -0.18008,0.01385 -0.29091,0.02771zM318.69846,217.81031v-3.64327c0,-0.56796 0.02771,-1.13593 0.09697,-1.70388c0.04156,-0.36016 0.0554,-0.7342 0.0554,-1.10822c0.01385,-0.62338 0.36016,-1.01125 0.88657,-1.2606c0.59567,-0.27705 1.21904,-0.38787 1.88397,-0.30476c0.11082,0.01385 0.18008,0.06926 0.2355,0.16623c0.02771,0.04156 0.0554,0.08311 0.06926,0.12468c0.4987,1.19133 1.17748,2.28569 1.85627,3.38007c0.34632,0.56796 0.70649,1.13593 1.05281,1.70388c0.33247,0.55412 0.62338,1.12207 0.87272,1.71774c0.37402,0.84502 0.83117,1.62077 1.41298,2.34111c0.29091,0.37402 0.60952,0.70649 0.98354,1.01125c0.09697,0.08311 0.18008,0.16623 0.2632,0.24936c0.08311,0.09697 0.12468,0.22165 0.11082,0.34632c-0.01385,0.06926 -0.04156,0.13853 -0.09697,0.19394c-0.04156,0.0554 -0.11082,0.09697 -0.18008,0.12468c-1.2329,0.56796 -2.47965,1.10822 -3.79565,1.45454c-1.20519,0.31861 -2.43808,0.42944 -3.67098,0.34632c-0.41558,-0.02771 -0.83117,-0.09697 -1.24675,-0.15237c-0.15237,-0.02771 -0.29091,-0.06926 -0.42944,-0.11082c-0.09697,-0.02771 -0.16623,-0.09697 -0.18008,-0.20779c-0.01385,-0.16623 -0.01385,-0.34632 -0.02771,-0.51255l-0.04156,-2.07792c-0.04156,-0.74805 -0.08311,-1.49609 -0.11082,-2.07792zM232.67298,214.61032c0.02771,1.17748 0.01385,2.11947 0.08311,3.06146c0.06926,1.13593 0.08311,2.27185 0.11082,3.40777c0.00928,0.25073 0.0061,0.50009 0.00305,0.74666c-0.00152,0.1219 -0.00305,0.24243 -0.00305,0.36155c0,0.06926 -0.01385,0.15237 -0.04156,0.22165c-0.01385,0.04156 -0.0554,0.09697 -0.08311,0.11082c-0.13853,0.0554 -0.27705,0.11082 -0.41558,0.15237c-1.2606,0.29091 -2.5489,0.37402 -3.8372,0.27705c-1.35757,-0.11082 -2.68744,-0.37402 -3.97574,-0.85888c-0.72034,-0.27705 -1.41298,-0.59567 -2.05021,-1.0251c-0.20779,-0.13853 -0.40173,-0.27705 -0.56796,-0.47099c-0.0554,-0.06926 -0.01385,-0.22165 0.06926,-0.2355c0.29091,-0.0554 0.58181,-0.12468 0.87272,-0.16623c0.48484,-0.06926 0.88657,-0.29091 1.20519,-0.65108c0.20779,-0.24936 0.41558,-0.4987 0.59567,-0.76189c0.34632,-0.51255 0.66493,-1.03896 0.94199,-1.59306c0.87272,-1.71774 1.7593,-3.43548 2.64587,-5.13936c0.18008,-0.34632 0.37402,-0.69263 0.56796,-1.03896c0.12468,-0.22165 0.27705,-0.40173 0.45713,-0.58181c0.12468,-0.12468 0.27705,-0.19394 0.47099,-0.19394c0.40173,0 0.7896,0.09697 1.14978,0.2355c0.63723,0.2355 1.19133,0.59567 1.70388,1.03896c0.09697,0.08311 0.15237,0.19394 0.13853,0.33247c0,0.19394 -0.01385,0.40173 -0.01385,0.59567c0,0.7896 -0.01385,1.60691 -0.02771,2.17489zM275.32556,227.38256h0.31861c0.66493,-0.02771 1.32986,-0.06926 2.00864,-0.09697c0.42944,-0.01385 0.83117,-0.09697 1.2329,-0.2355c0.58181,-0.20779 1.16364,-0.42944 1.71774,-0.69263c0.84502,-0.41558 1.69003,-0.81731 2.5212,-1.2606c0.4987,-0.2632 0.99739,-0.55412 1.48224,-0.84502c0.12468,-0.06926 0.2355,-0.16623 0.36016,-0.2632c0.08311,-0.06926 0.11082,-0.16623 0.11082,-0.2632c0,-0.0554 -0.01385,-0.09697 -0.02771,-0.15237c-0.2355,-1.20519 -0.48484,-2.42423 -0.72034,-3.62941c-0.08311,-0.41558 -0.16623,-0.81731 -0.2632,-1.2329c-0.02771,-0.11082 -0.09697,-0.16623 -0.19394,-0.20779c-0.11082,-0.04156 -0.2355,-0.08311 -0.36016,-0.09697c-0.63723,-0.11082 -1.2606,-0.22165 -1.89782,-0.33247c-1.0251,-0.18008 -2.03635,-0.40173 -3.03375,-0.66493c-2.06406,-0.55412 -4.045,-1.2883 -5.94282,-2.28569c-0.15237,-0.08311 -0.30476,-0.15237 -0.47099,-0.22165c-0.06926,-0.02771 -0.15237,-0.02771 -0.22165,-0.01385c-0.16623,0.04156 -0.33247,0.09697 -0.48484,0.16623c-0.48484,0.19394 -0.96969,0.37402 -1.45454,0.56796c-1.14978,0.45713 -2.3134,0.88657 -3.49089,1.2329c-1.19133,0.33247 -2.38268,0.63723 -3.61556,0.81731c-0.34632,0.0554 -0.67878,0.11082 -1.0251,0.13853c-0.19394,0.01385 -0.38787,0.06926 -0.58181,0.11082c-0.09697,0.01385 -0.18008,0.11082 -0.19394,0.20779c-0.01385,0.09697 -0.02771,0.19394 -0.02771,0.29091c0,0.54026 -0.01385,1.09436 -0.01385,1.63462c0,0.52641 0.04156,1.03896 0.12468,1.55151c0.15237,0.91428 0.42944,1.77316 0.76189,2.63202c0.12468,0.29091 0.29091,0.4987 0.60952,0.59567c0.41558,0.13853 0.83117,0.31861 1.24675,0.47099c1.0251,0.37402 2.05021,0.72034 3.10301,0.99739c1.21904,0.31861 2.45194,0.58181 3.71253,0.7342c0.65108,0.15237 1.32986,0.16623 1.99479,0.2355c0.88657,0.06926 1.787,0.06926 2.71513,0.11082z" data-paper-data="{&quot;isPathIcon&quot;:true}" style="fill: rgb(41, 134, 204);"></path></g></svg>
